%TF.GenerationSoftware,KiCad,Pcbnew,7.0.9*%
%TF.CreationDate,2023-12-28T22:45:01+01:00*%
%TF.ProjectId,pcb3,70636233-2e6b-4696-9361-645f70636258,v1.0.0*%
%TF.SameCoordinates,Original*%
%TF.FileFunction,Copper,L2,Bot*%
%TF.FilePolarity,Positive*%
%FSLAX46Y46*%
G04 Gerber Fmt 4.6, Leading zero omitted, Abs format (unit mm)*
G04 Created by KiCad (PCBNEW 7.0.9) date 2023-12-28 22:45:01*
%MOMM*%
%LPD*%
G01*
G04 APERTURE LIST*
G04 Aperture macros list*
%AMRotRect*
0 Rectangle, with rotation*
0 The origin of the aperture is its center*
0 $1 length*
0 $2 width*
0 $3 Rotation angle, in degrees counterclockwise*
0 Add horizontal line*
21,1,$1,$2,0,0,$3*%
G04 Aperture macros list end*
%TA.AperFunction,ComponentPad*%
%ADD10C,2.032000*%
%TD*%
%TA.AperFunction,SMDPad,CuDef*%
%ADD11R,2.600000X2.600000*%
%TD*%
%TA.AperFunction,SMDPad,CuDef*%
%ADD12RotRect,2.600000X2.600000X5.000000*%
%TD*%
%TA.AperFunction,SMDPad,CuDef*%
%ADD13RotRect,2.600000X2.600000X20.000000*%
%TD*%
%TA.AperFunction,SMDPad,CuDef*%
%ADD14RotRect,2.600000X2.600000X337.000000*%
%TD*%
%TA.AperFunction,SMDPad,CuDef*%
%ADD15RotRect,2.600000X2.600000X10.000000*%
%TD*%
%TA.AperFunction,ComponentPad*%
%ADD16O,1.600000X2.200000*%
%TD*%
%TA.AperFunction,ComponentPad*%
%ADD17R,1.752600X1.752600*%
%TD*%
%TA.AperFunction,ComponentPad*%
%ADD18C,1.752600*%
%TD*%
%TA.AperFunction,SMDPad,CuDef*%
%ADD19RotRect,2.600000X2.600000X347.000000*%
%TD*%
%TA.AperFunction,Conductor*%
%ADD20C,0.200000*%
%TD*%
G04 APERTURE END LIST*
D10*
%TO.P,S23,1*%
%TO.N,P3*%
X105884449Y-56144949D03*
X96036371Y-57881430D03*
%TO.P,S23,2*%
%TO.N,GND*%
X101325071Y-59081286D03*
X101325071Y-59081286D03*
%TD*%
D11*
%TO.P,S11,1*%
%TO.N,P8*%
X139957188Y-63430688D03*
%TO.P,S11,2*%
%TO.N,GND*%
X151507188Y-65630688D03*
%TD*%
%TO.P,S14,1*%
%TO.N,P0*%
X157957186Y-67464025D03*
%TO.P,S14,2*%
%TO.N,GND*%
X169507186Y-69664025D03*
%TD*%
D12*
%TO.P,S8,1*%
%TO.N,P5*%
X118522023Y-56152549D03*
%TO.P,S8,2*%
%TO.N,GND*%
X130219814Y-57337528D03*
%TD*%
D13*
%TO.P,S2,1*%
%TO.N,P15*%
X81468262Y-84911603D03*
%TO.P,S2,2*%
%TO.N,GND*%
X93074156Y-83028594D03*
%TD*%
D10*
%TO.P,S21,1*%
%TO.N,P19*%
X111788487Y-89628413D03*
X101940409Y-91364894D03*
%TO.P,S21,2*%
%TO.N,GND*%
X107229109Y-92564750D03*
X107229109Y-92564750D03*
%TD*%
%TO.P,S32,1*%
%TO.N,P1*%
X166232192Y-60214023D03*
X156232192Y-60214023D03*
%TO.P,S32,2*%
%TO.N,GND*%
X161232192Y-62314023D03*
X161232192Y-62314023D03*
%TD*%
%TO.P,S19,1*%
%TO.N,P15*%
X92578915Y-91243389D03*
X83181988Y-94663591D03*
%TO.P,S19,2*%
%TO.N,GND*%
X88598694Y-94926844D03*
X88598694Y-94926844D03*
%TD*%
D11*
%TO.P,S12,1*%
%TO.N,P9*%
X139957191Y-46430688D03*
%TO.P,S12,2*%
%TO.N,GND*%
X151507191Y-48630688D03*
%TD*%
D14*
%TO.P,S17,1*%
%TO.N,P10*%
X178005392Y-113656372D03*
%TO.P,S17,2*%
%TO.N,GND*%
X187777614Y-120194427D03*
%TD*%
D15*
%TO.P,S4,1*%
%TO.N,P19*%
X101946133Y-81463476D03*
%TO.P,S4,2*%
%TO.N,GND*%
X113702688Y-81624416D03*
%TD*%
D10*
%TO.P,S33,1*%
%TO.N,P16*%
X164249222Y-119241390D03*
X154505522Y-116991879D03*
%TO.P,S33,2*%
%TO.N,GND*%
X158904975Y-120162811D03*
X158904975Y-120162811D03*
%TD*%
D12*
%TO.P,S9,1*%
%TO.N,P6*%
X117040378Y-39217239D03*
%TO.P,S9,2*%
%TO.N,GND*%
X128738169Y-40402218D03*
%TD*%
D10*
%TO.P,S24,1*%
%TO.N,P4*%
X129096955Y-82079544D03*
X119135008Y-82951102D03*
%TO.P,S24,2*%
%TO.N,GND*%
X124299009Y-84607332D03*
X124299009Y-84607332D03*
%TD*%
D16*
%TO.P,TRRS1,1*%
%TO.N,GND*%
X192582183Y-78214024D03*
X197182183Y-78214024D03*
%TO.P,TRRS1,2*%
X192582183Y-77114024D03*
X197182183Y-77114024D03*
%TO.P,TRRS1,3*%
%TO.N,P21*%
X192582183Y-73114024D03*
X197182183Y-73114024D03*
%TO.P,TRRS1,4*%
%TO.N,VCC*%
X192582183Y-70114024D03*
X197182183Y-70114024D03*
%TD*%
D10*
%TO.P,S29,1*%
%TO.N,P9*%
X148232191Y-56180688D03*
X138232191Y-56180688D03*
%TO.P,S29,2*%
%TO.N,GND*%
X143232191Y-58280688D03*
X143232191Y-58280688D03*
%TD*%
D11*
%TO.P,S13,1*%
%TO.N,P2*%
X157957193Y-84464035D03*
%TO.P,S13,2*%
%TO.N,GND*%
X169507193Y-86664035D03*
%TD*%
D17*
%TO.P,MCU1,1*%
%TO.N,RAW*%
X189052185Y-69444021D03*
D18*
%TO.P,MCU1,2*%
%TO.N,GND*%
X189052185Y-71984021D03*
%TO.P,MCU1,3*%
%TO.N,RST*%
X189052185Y-74524021D03*
%TO.P,MCU1,4*%
%TO.N,VCC*%
X189052185Y-77064021D03*
%TO.P,MCU1,5*%
%TO.N,P21*%
X189052185Y-79604021D03*
%TO.P,MCU1,6*%
%TO.N,P20*%
X189052185Y-82144021D03*
%TO.P,MCU1,7*%
%TO.N,P19*%
X189052185Y-84684021D03*
%TO.P,MCU1,8*%
%TO.N,P18*%
X189052185Y-87224021D03*
%TO.P,MCU1,9*%
%TO.N,P15*%
X189052185Y-89764021D03*
%TO.P,MCU1,10*%
%TO.N,P14*%
X189052185Y-92304021D03*
%TO.P,MCU1,11*%
%TO.N,P16*%
X189052185Y-94844021D03*
%TO.P,MCU1,12*%
%TO.N,P10*%
X189052185Y-97384021D03*
%TO.P,MCU1,13*%
%TO.N,P1*%
X173812185Y-69444021D03*
%TO.P,MCU1,14*%
%TO.N,P0*%
X173812185Y-71984021D03*
%TO.P,MCU1,15*%
%TO.N,GND*%
X173812185Y-74524021D03*
%TO.P,MCU1,16*%
X173812185Y-77064021D03*
%TO.P,MCU1,17*%
%TO.N,P2*%
X173812185Y-79604021D03*
%TO.P,MCU1,18*%
%TO.N,P3*%
X173812185Y-82144021D03*
%TO.P,MCU1,19*%
%TO.N,P4*%
X173812185Y-84684021D03*
%TO.P,MCU1,20*%
%TO.N,P5*%
X173812185Y-87224021D03*
%TO.P,MCU1,21*%
%TO.N,P6*%
X173812185Y-89764021D03*
%TO.P,MCU1,22*%
%TO.N,P7*%
X173812185Y-92304021D03*
%TO.P,MCU1,23*%
%TO.N,P8*%
X173812185Y-94844021D03*
%TO.P,MCU1,24*%
%TO.N,P9*%
X173812185Y-97384021D03*
%TD*%
D10*
%TO.P,S30,1*%
%TO.N,P2*%
X166232193Y-94214035D03*
X156232193Y-94214035D03*
%TO.P,S30,2*%
%TO.N,GND*%
X161232193Y-96314035D03*
X161232193Y-96314035D03*
%TD*%
D13*
%TO.P,S1,1*%
%TO.N,P14*%
X87282607Y-100886380D03*
%TO.P,S1,2*%
%TO.N,GND*%
X98888501Y-99003371D03*
%TD*%
D10*
%TO.P,S18,1*%
%TO.N,P14*%
X98393260Y-107218166D03*
X88996333Y-110638368D03*
%TO.P,S18,2*%
%TO.N,GND*%
X94413039Y-110901621D03*
X94413039Y-110901621D03*
%TD*%
%TO.P,S27,1*%
%TO.N,P7*%
X148232192Y-90180695D03*
X138232192Y-90180695D03*
%TO.P,S27,2*%
%TO.N,GND*%
X143232192Y-92280695D03*
X143232192Y-92280695D03*
%TD*%
D15*
%TO.P,S6,1*%
%TO.N,P3*%
X96042095Y-47980012D03*
%TO.P,S6,2*%
%TO.N,GND*%
X107798650Y-48140952D03*
%TD*%
D10*
%TO.P,S20,1*%
%TO.N,P18*%
X86764572Y-75268616D03*
X77367645Y-78688818D03*
%TO.P,S20,2*%
%TO.N,GND*%
X82784351Y-78952071D03*
X82784351Y-78952071D03*
%TD*%
D19*
%TO.P,S16,1*%
%TO.N,P16*%
X158379583Y-107879811D03*
%TO.P,S16,2*%
%TO.N,GND*%
X169138665Y-112621610D03*
%TD*%
D10*
%TO.P,S28,1*%
%TO.N,P8*%
X148232188Y-73180688D03*
X138232188Y-73180688D03*
%TO.P,S28,2*%
%TO.N,GND*%
X143232188Y-75280688D03*
X143232188Y-75280688D03*
%TD*%
%TO.P,S34,1*%
%TO.N,P10*%
X181812941Y-125864594D03*
X172607892Y-121957283D03*
%TO.P,S34,2*%
%TO.N,GND*%
X176389881Y-125843999D03*
X176389881Y-125843999D03*
%TD*%
D11*
%TO.P,S10,1*%
%TO.N,P7*%
X139957192Y-80430695D03*
%TO.P,S10,2*%
%TO.N,GND*%
X151507192Y-82630695D03*
%TD*%
D13*
%TO.P,S3,1*%
%TO.N,P18*%
X75653919Y-68936830D03*
%TO.P,S3,2*%
%TO.N,GND*%
X87259813Y-67053821D03*
%TD*%
D10*
%TO.P,S25,1*%
%TO.N,P5*%
X127615302Y-65144233D03*
X117653355Y-66015791D03*
%TO.P,S25,2*%
%TO.N,GND*%
X122817356Y-67672021D03*
X122817356Y-67672021D03*
%TD*%
%TO.P,S26,1*%
%TO.N,P6*%
X126133657Y-48208923D03*
X116171710Y-49080481D03*
%TO.P,S26,2*%
%TO.N,GND*%
X121335711Y-50736711D03*
X121335711Y-50736711D03*
%TD*%
%TO.P,S22,1*%
%TO.N,P20*%
X108836465Y-72886681D03*
X98988387Y-74623162D03*
%TO.P,S22,2*%
%TO.N,GND*%
X104277087Y-75823018D03*
X104277087Y-75823018D03*
%TD*%
D12*
%TO.P,S7,1*%
%TO.N,P4*%
X120003676Y-73087860D03*
%TO.P,S7,2*%
%TO.N,GND*%
X131701467Y-74272839D03*
%TD*%
D11*
%TO.P,S15,1*%
%TO.N,P1*%
X157957192Y-50464023D03*
%TO.P,S15,2*%
%TO.N,GND*%
X169507192Y-52664023D03*
%TD*%
D15*
%TO.P,S5,1*%
%TO.N,P20*%
X98994111Y-64721744D03*
%TO.P,S5,2*%
%TO.N,GND*%
X110750666Y-64882684D03*
%TD*%
D10*
%TO.P,S31,1*%
%TO.N,P0*%
X166232186Y-77214025D03*
X156232186Y-77214025D03*
%TO.P,S31,2*%
%TO.N,GND*%
X161232186Y-79314025D03*
X161232186Y-79314025D03*
%TD*%
D20*
%TO.N,GND*%
X161232186Y-79314025D02*
X171562181Y-79314025D01*
X171562181Y-79314025D02*
X173812185Y-77064021D01*
X169507185Y-69664022D02*
X169507186Y-79081132D01*
X169507186Y-79081132D02*
X169519840Y-79093786D01*
X169519840Y-79093786D02*
X169299596Y-79314025D01*
X169299596Y-79314025D02*
X161232188Y-79314023D01*
X161232188Y-79314023D02*
X161232186Y-79314025D01*
%TO.N,P14*%
X87282603Y-100886376D02*
X87442819Y-100961088D01*
X87442819Y-100961088D02*
X89677018Y-107099499D01*
X89576859Y-109393417D02*
X88996334Y-110638367D01*
X89576862Y-109393418D02*
G75*
G03*
X89677018Y-107099499I-2718922J1267858D01*
G01*
%TO.N,GND*%
X115167778Y-91164946D02*
X107229105Y-92564754D01*
X187777615Y-118782156D02*
X166188167Y-97192714D01*
X121302946Y-97861766D02*
X124299011Y-93582942D01*
X129398700Y-50031291D02*
X121335709Y-50736711D01*
X151507190Y-92281138D02*
X151506742Y-92280694D01*
X169507188Y-69664024D02*
X169507188Y-70219025D01*
X158904979Y-120162814D02*
X162939462Y-121243849D01*
X161232191Y-97793645D02*
X161232192Y-96314033D01*
X107798649Y-48140954D02*
X109437217Y-57433725D01*
X173812185Y-77064021D02*
X173707746Y-77064021D01*
X168259992Y-104821442D02*
X161232191Y-97793645D01*
X169507192Y-86664031D02*
X169507191Y-96281136D01*
X138128314Y-99654886D02*
X131613592Y-99654885D01*
X169507192Y-52664028D02*
X169507190Y-62081136D01*
X169507192Y-69664023D02*
X169507188Y-69664024D01*
X173841116Y-74524021D02*
X173904431Y-74460706D01*
X169499585Y-96314030D02*
X161232190Y-96314030D01*
X169507191Y-96281136D02*
X169519838Y-96293786D01*
X131701467Y-74272840D02*
X131689293Y-74133675D01*
X132509294Y-83506355D02*
X132162757Y-83919345D01*
X151132932Y-75280687D02*
X143232191Y-75280689D01*
X191703511Y-74635348D02*
X189052192Y-71984022D01*
X130681114Y-66984031D02*
X122817358Y-67672017D01*
X110750666Y-64882684D02*
X113702685Y-81624412D01*
X151507186Y-74881139D02*
X151519835Y-74893786D01*
X151519837Y-58093787D02*
X151332933Y-58280693D01*
X115341258Y-90917187D02*
X115167778Y-91164946D01*
X131689293Y-74133675D02*
X131308904Y-73814494D01*
X151507188Y-65630689D02*
X151507190Y-82630689D01*
X173812185Y-74524021D02*
X173841116Y-74524021D01*
X102046015Y-107678592D02*
X101796176Y-108214379D01*
X151519835Y-74893786D02*
X151132932Y-75280687D01*
X107798647Y-48140957D02*
X107798649Y-48140954D01*
X130219815Y-57337529D02*
X128738169Y-40402220D01*
X148492275Y-100776206D02*
X144110868Y-96394804D01*
X187777610Y-120194426D02*
X185796766Y-125636761D01*
X93074156Y-83028596D02*
X96193632Y-91599290D01*
X143232190Y-92280692D02*
X143232188Y-94273479D01*
X169507192Y-52664025D02*
X169507192Y-69664023D01*
X169299598Y-62314023D02*
X161232191Y-62314021D01*
X187777610Y-120194426D02*
X187777615Y-118782156D01*
X109263737Y-57681490D02*
X101325071Y-59081287D01*
X96193632Y-91599290D02*
X96264918Y-91632529D01*
X192582184Y-77114020D02*
X192582188Y-76756666D01*
X151507191Y-65630690D02*
X151507186Y-74881139D01*
X173704431Y-77060707D02*
X173812186Y-76952951D01*
X132162755Y-83919343D02*
X132162757Y-83919345D01*
X131027645Y-66571052D02*
X130681114Y-66984031D01*
X186575500Y-74460707D02*
X189052185Y-71984021D01*
X131701472Y-74272844D02*
X132509294Y-83506355D01*
X130219817Y-57337528D02*
X131027645Y-66571052D01*
X151507192Y-48630688D02*
X151507197Y-58081140D01*
X181423457Y-127676067D02*
X176389881Y-125843998D01*
X113702689Y-81624416D02*
X115341258Y-90917187D01*
X151507197Y-58081140D02*
X151519837Y-58093787D01*
X173904431Y-74460706D02*
X186575500Y-74460707D01*
X131701467Y-74272840D02*
X130219820Y-57337536D01*
X112215757Y-74423220D02*
X104277091Y-75823021D01*
X161232191Y-97793645D02*
X158249634Y-100776204D01*
X169519838Y-96293786D02*
X169499585Y-96314030D01*
X169138670Y-112621610D02*
X169138669Y-106942762D01*
X151332933Y-58280693D02*
X143232189Y-58280686D01*
X156128313Y-101654884D02*
X150613596Y-101654885D01*
X184245545Y-127329621D02*
X183717372Y-127575913D01*
X128738169Y-40402220D02*
X128738169Y-40402218D01*
X164066847Y-96314033D02*
X161232192Y-96314033D01*
X173707746Y-77064021D02*
X173704431Y-77060707D01*
X87259814Y-67053823D02*
X93074155Y-83028594D01*
X90543369Y-76128024D02*
X82784354Y-78952071D01*
X151506742Y-92280694D02*
X143232190Y-92280692D01*
X95981833Y-92239604D02*
X88598701Y-94926846D01*
X96264918Y-91632529D02*
X95981833Y-92239604D01*
X110750665Y-64882684D02*
X112389233Y-74175467D01*
X169507192Y-86664032D02*
X169507190Y-86664037D01*
X142353512Y-96672328D02*
X140249635Y-98776205D01*
X94413036Y-110901619D02*
X108215032Y-105878107D01*
X169507188Y-69664024D02*
X169507192Y-86664032D01*
X151507189Y-48630687D02*
X151507188Y-65630689D01*
X113702685Y-81624412D02*
X113702690Y-81624417D01*
X98888500Y-99003366D02*
X102046015Y-107678592D01*
X130219820Y-57337536D02*
X130219815Y-57337529D01*
X90587379Y-76033633D02*
X90543369Y-76128024D01*
X87259815Y-67053820D02*
X90516099Y-76000396D01*
X107229113Y-92564748D02*
X107965988Y-96743772D01*
X167540066Y-118587687D02*
X169138669Y-112621610D01*
X128738171Y-40402220D02*
X129563434Y-49834980D01*
X101796176Y-108214379D02*
X94413036Y-110901619D01*
X111718520Y-100443992D02*
X119366435Y-99095457D01*
X124299011Y-93582942D02*
X125010129Y-92735465D01*
X125010129Y-92735465D02*
X124299009Y-84607331D01*
X110750666Y-64882684D02*
X107798647Y-48140957D01*
X129563434Y-49834980D02*
X129398700Y-50031291D01*
X169519834Y-62093784D02*
X169299598Y-62314023D01*
X173812186Y-76952951D02*
X173812185Y-74524021D01*
X165215916Y-120944147D02*
X166142284Y-120409305D01*
X109907898Y-104326882D02*
X111718520Y-100443992D01*
X124299009Y-84607331D02*
X132162755Y-83919343D01*
X169507190Y-62081136D02*
X169519834Y-62093784D01*
X90516099Y-76000396D02*
X90587379Y-76033633D01*
X129492271Y-98776204D02*
X124299011Y-93582942D01*
X109199681Y-98680282D02*
X111718520Y-100443992D01*
X112389233Y-74175467D02*
X112215757Y-74423220D01*
X93074156Y-83028595D02*
X98888499Y-99003368D01*
X132162757Y-83919345D02*
X127037545Y-84367741D01*
X87259814Y-67053823D02*
X87259815Y-67053820D01*
X151507193Y-82630689D02*
X151507190Y-92281138D01*
X143232190Y-92280692D02*
X143232190Y-94551008D01*
X109437217Y-57433725D02*
X109263737Y-57681490D01*
X138128314Y-99654899D02*
G75*
G03*
X140249635Y-98776205I-14J2999999D01*
G01*
X129492278Y-98776197D02*
G75*
G03*
X131613592Y-99654885I2121322J2121297D01*
G01*
X184245543Y-127329617D02*
G75*
G03*
X185796766Y-125636761I-1267843J2718917D01*
G01*
X143232204Y-94273479D02*
G75*
G03*
X144110868Y-96394804I2999996J-21D01*
G01*
X156128313Y-101654898D02*
G75*
G03*
X158249634Y-100776204I-13J2999998D01*
G01*
X107965967Y-96743776D02*
G75*
G03*
X109199681Y-98680282I2954433J520976D01*
G01*
X166142274Y-120409287D02*
G75*
G03*
X167540065Y-118587687I-1499974J2598087D01*
G01*
X142353505Y-96672321D02*
G75*
G03*
X143232190Y-94551008I-2121305J2121321D01*
G01*
X93074156Y-83028595D02*
X93074156Y-83028595D01*
X181423452Y-127676079D02*
G75*
G03*
X183717372Y-127575912I1026048J2819079D01*
G01*
X192582186Y-76756666D02*
G75*
G03*
X191703511Y-74635348I-3000086J-34D01*
G01*
X119366432Y-99095438D02*
G75*
G03*
X121302945Y-97861766I-520932J2954438D01*
G01*
X162939461Y-121243854D02*
G75*
G03*
X165215916Y-120944147I776439J2897854D01*
G01*
X108215041Y-105878133D02*
G75*
G03*
X109907898Y-104326882I-1026141J2819133D01*
G01*
X148492281Y-100776200D02*
G75*
G03*
X150613596Y-101654885I2121319J2121300D01*
G01*
X166188138Y-97192743D02*
G75*
G03*
X164066847Y-96314033I-2121338J-2121257D01*
G01*
X169138706Y-106942762D02*
G75*
G03*
X168259992Y-104821442I-3000006J-38D01*
G01*
%TO.N,P15*%
X81468266Y-84911606D02*
X81628476Y-84986315D01*
X83762516Y-93418643D02*
X83181987Y-94663594D01*
X81628476Y-84986315D02*
X83862676Y-91124724D01*
X83762529Y-93418649D02*
G75*
G03*
X83862675Y-91124724I-2718929J1267849D01*
G01*
%TO.N,P18*%
X75653920Y-68936831D02*
X75814133Y-69011542D01*
X77948180Y-77443870D02*
X77367646Y-78688820D01*
X75814133Y-69011542D02*
X78048329Y-75149951D01*
X77948164Y-77443863D02*
G75*
G03*
X78048329Y-75149951I-2718864J1267863D01*
G01*
%TO.N,P19*%
X101946132Y-81463474D02*
X102090941Y-81564870D01*
X102728305Y-90239663D02*
X101940408Y-91364891D01*
X102090941Y-81564870D02*
X103225273Y-87997989D01*
X102728278Y-90239644D02*
G75*
G03*
X103225272Y-87997989I-2457378J1720744D01*
G01*
%TO.N,P20*%
X99138915Y-64823135D02*
X100273250Y-71256259D01*
X99776286Y-73497930D02*
X98988393Y-74623163D01*
X98994110Y-64721744D02*
X99138915Y-64823135D01*
X99776286Y-73497930D02*
G75*
G03*
X100273249Y-71256259I-2457486J1720730D01*
G01*
%TO.N,P3*%
X96186906Y-48081411D02*
X97321238Y-54514527D01*
X96042099Y-47980011D02*
X96186906Y-48081411D01*
X96042099Y-47980011D02*
X96034635Y-47937712D01*
X96824270Y-56756196D02*
X96036375Y-57881434D01*
X96034635Y-47937712D02*
X96256837Y-47620384D01*
X96824278Y-56756202D02*
G75*
G03*
X97321237Y-54514527I-2457378J1720702D01*
G01*
%TO.N,P4*%
X120139098Y-73201490D02*
X120708429Y-79708990D01*
X120017976Y-81898820D02*
X119135008Y-82951106D01*
X120003679Y-73087865D02*
X120139098Y-73201490D01*
X120017991Y-81898833D02*
G75*
G03*
X120708428Y-79708990I-2298091J1928333D01*
G01*
%TO.N,P5*%
X118657444Y-56266178D02*
X119226778Y-62773678D01*
X118536324Y-64963513D02*
X117653361Y-66015788D01*
X118522024Y-56152546D02*
X118657444Y-56266178D01*
X118536296Y-64963490D02*
G75*
G03*
X119226777Y-62773678I-2298096J1928390D01*
G01*
%TO.N,P6*%
X117040379Y-39217243D02*
X117175799Y-39330870D01*
X117175799Y-39330870D02*
X117745130Y-45838372D01*
X117054681Y-48028202D02*
X116171713Y-49080484D01*
X117054648Y-48028174D02*
G75*
G03*
X117745129Y-45838372I-2298048J1928374D01*
G01*
%TO.N,P7*%
X139957193Y-80430690D02*
X140082193Y-80555691D01*
X140082193Y-80555691D02*
X140082190Y-87088051D01*
X139203511Y-89209368D02*
X138232191Y-90180692D01*
X139203535Y-89209392D02*
G75*
G03*
X140082190Y-87088051I-2121335J2121292D01*
G01*
%TO.N,P8*%
X139203511Y-72209364D02*
X138232194Y-73180690D01*
X139957190Y-63430689D02*
X140082188Y-63555688D01*
X140082188Y-63555688D02*
X140082187Y-70088048D01*
X139203535Y-72209388D02*
G75*
G03*
X140082187Y-70088048I-2121335J2121288D01*
G01*
%TO.N,P9*%
X140082192Y-46555690D02*
X140082187Y-53088046D01*
X139957193Y-46430691D02*
X140082192Y-46555690D01*
X139203510Y-55209371D02*
X138232191Y-56180686D01*
X139203531Y-55209392D02*
G75*
G03*
X140082187Y-53088046I-2121331J2121292D01*
G01*
%TO.N,P2*%
X158082192Y-84589034D02*
X158082189Y-91121393D01*
X157957194Y-84464039D02*
X158082192Y-84589034D01*
X157203513Y-93242713D02*
X156232192Y-94214032D01*
X157203513Y-93242713D02*
G75*
G03*
X158082189Y-91121393I-2121313J2121313D01*
G01*
%TO.N,P0*%
X157957182Y-67464027D02*
X158082188Y-67589023D01*
X158082188Y-67589023D02*
X158082189Y-74121387D01*
X157203506Y-76242702D02*
X156232189Y-77214028D01*
X157203515Y-76242711D02*
G75*
G03*
X158082189Y-74121387I-2121315J2121311D01*
G01*
%TO.N,P1*%
X157957192Y-50464022D02*
X158082191Y-50589023D01*
X157203512Y-59242702D02*
X156232188Y-60214028D01*
X158082191Y-50589023D02*
X158082194Y-57121381D01*
X157203521Y-59242711D02*
G75*
G03*
X158082194Y-57121381I-2121321J2121311D01*
G01*
%TO.N,P16*%
X156088508Y-115883467D02*
X154505522Y-116991877D01*
X158389500Y-107893972D02*
X157322204Y-113946949D01*
X158379586Y-107879811D02*
X158389500Y-107893972D01*
X156088523Y-115883488D02*
G75*
G03*
X157322204Y-113946949I-1720823J2457488D01*
G01*
%TO.N,P10*%
X178012696Y-113672042D02*
X175910523Y-119447726D01*
X174359295Y-121140589D02*
X172607894Y-121957283D01*
X178005392Y-113656374D02*
X178012696Y-113672042D01*
X174359314Y-121140629D02*
G75*
G03*
X175910522Y-119447726I-1267914J2718929D01*
G01*
%TD*%
M02*
