%TF.GenerationSoftware,KiCad,Pcbnew,7.0.9*%
%TF.CreationDate,2023-12-28T22:45:01+01:00*%
%TF.ProjectId,pcb3,70636233-2e6b-4696-9361-645f70636258,v1.0.0*%
%TF.SameCoordinates,Original*%
%TF.FileFunction,Legend,Top*%
%TF.FilePolarity,Positive*%
%FSLAX46Y46*%
G04 Gerber Fmt 4.6, Leading zero omitted, Abs format (unit mm)*
G04 Created by KiCad (PCBNEW 7.0.9) date 2023-12-28 22:45:01*
%MOMM*%
%LPD*%
G01*
G04 APERTURE LIST*
%ADD10C,0.150000*%
%ADD11R,1.752600X1.752600*%
%ADD12C,1.752600*%
G04 APERTURE END LIST*
D10*
X175660756Y-97746316D02*
X175660756Y-96946316D01*
X175660756Y-96946316D02*
X175965518Y-96946316D01*
X175965518Y-96946316D02*
X176041708Y-96984411D01*
X176041708Y-96984411D02*
X176079803Y-97022506D01*
X176079803Y-97022506D02*
X176117899Y-97098697D01*
X176117899Y-97098697D02*
X176117899Y-97212982D01*
X176117899Y-97212982D02*
X176079803Y-97289173D01*
X176079803Y-97289173D02*
X176041708Y-97327268D01*
X176041708Y-97327268D02*
X175965518Y-97365363D01*
X175965518Y-97365363D02*
X175660756Y-97365363D01*
X176613137Y-96946316D02*
X176689327Y-96946316D01*
X176689327Y-96946316D02*
X176765518Y-96984411D01*
X176765518Y-96984411D02*
X176803613Y-97022506D01*
X176803613Y-97022506D02*
X176841708Y-97098697D01*
X176841708Y-97098697D02*
X176879803Y-97251078D01*
X176879803Y-97251078D02*
X176879803Y-97441554D01*
X176879803Y-97441554D02*
X176841708Y-97593935D01*
X176841708Y-97593935D02*
X176803613Y-97670125D01*
X176803613Y-97670125D02*
X176765518Y-97708221D01*
X176765518Y-97708221D02*
X176689327Y-97746316D01*
X176689327Y-97746316D02*
X176613137Y-97746316D01*
X176613137Y-97746316D02*
X176536946Y-97708221D01*
X176536946Y-97708221D02*
X176498851Y-97670125D01*
X176498851Y-97670125D02*
X176460756Y-97593935D01*
X176460756Y-97593935D02*
X176422660Y-97441554D01*
X176422660Y-97441554D02*
X176422660Y-97251078D01*
X176422660Y-97251078D02*
X176460756Y-97098697D01*
X176460756Y-97098697D02*
X176498851Y-97022506D01*
X176498851Y-97022506D02*
X176536946Y-96984411D01*
X176536946Y-96984411D02*
X176613137Y-96946316D01*
X177260756Y-97746316D02*
X177413137Y-97746316D01*
X177413137Y-97746316D02*
X177489327Y-97708221D01*
X177489327Y-97708221D02*
X177527423Y-97670125D01*
X177527423Y-97670125D02*
X177603613Y-97555840D01*
X177603613Y-97555840D02*
X177641708Y-97403459D01*
X177641708Y-97403459D02*
X177641708Y-97098697D01*
X177641708Y-97098697D02*
X177603613Y-97022506D01*
X177603613Y-97022506D02*
X177565518Y-96984411D01*
X177565518Y-96984411D02*
X177489327Y-96946316D01*
X177489327Y-96946316D02*
X177336946Y-96946316D01*
X177336946Y-96946316D02*
X177260756Y-96984411D01*
X177260756Y-96984411D02*
X177222661Y-97022506D01*
X177222661Y-97022506D02*
X177184565Y-97098697D01*
X177184565Y-97098697D02*
X177184565Y-97289173D01*
X177184565Y-97289173D02*
X177222661Y-97365363D01*
X177222661Y-97365363D02*
X177260756Y-97403459D01*
X177260756Y-97403459D02*
X177336946Y-97441554D01*
X177336946Y-97441554D02*
X177489327Y-97441554D01*
X177489327Y-97441554D02*
X177565518Y-97403459D01*
X177565518Y-97403459D02*
X177603613Y-97365363D01*
X177603613Y-97365363D02*
X177641708Y-97289173D01*
X175660756Y-69806316D02*
X175660756Y-69006316D01*
X175660756Y-69006316D02*
X175965518Y-69006316D01*
X175965518Y-69006316D02*
X176041708Y-69044411D01*
X176041708Y-69044411D02*
X176079803Y-69082506D01*
X176079803Y-69082506D02*
X176117899Y-69158697D01*
X176117899Y-69158697D02*
X176117899Y-69272982D01*
X176117899Y-69272982D02*
X176079803Y-69349173D01*
X176079803Y-69349173D02*
X176041708Y-69387268D01*
X176041708Y-69387268D02*
X175965518Y-69425363D01*
X175965518Y-69425363D02*
X175660756Y-69425363D01*
X176613137Y-69006316D02*
X176689327Y-69006316D01*
X176689327Y-69006316D02*
X176765518Y-69044411D01*
X176765518Y-69044411D02*
X176803613Y-69082506D01*
X176803613Y-69082506D02*
X176841708Y-69158697D01*
X176841708Y-69158697D02*
X176879803Y-69311078D01*
X176879803Y-69311078D02*
X176879803Y-69501554D01*
X176879803Y-69501554D02*
X176841708Y-69653935D01*
X176841708Y-69653935D02*
X176803613Y-69730125D01*
X176803613Y-69730125D02*
X176765518Y-69768221D01*
X176765518Y-69768221D02*
X176689327Y-69806316D01*
X176689327Y-69806316D02*
X176613137Y-69806316D01*
X176613137Y-69806316D02*
X176536946Y-69768221D01*
X176536946Y-69768221D02*
X176498851Y-69730125D01*
X176498851Y-69730125D02*
X176460756Y-69653935D01*
X176460756Y-69653935D02*
X176422660Y-69501554D01*
X176422660Y-69501554D02*
X176422660Y-69311078D01*
X176422660Y-69311078D02*
X176460756Y-69158697D01*
X176460756Y-69158697D02*
X176498851Y-69082506D01*
X176498851Y-69082506D02*
X176536946Y-69044411D01*
X176536946Y-69044411D02*
X176613137Y-69006316D01*
X177641708Y-69806316D02*
X177184565Y-69806316D01*
X177413137Y-69806316D02*
X177413137Y-69006316D01*
X177413137Y-69006316D02*
X177336946Y-69120601D01*
X177336946Y-69120601D02*
X177260756Y-69196792D01*
X177260756Y-69196792D02*
X177184565Y-69234887D01*
X175660756Y-90126316D02*
X175660756Y-89326316D01*
X175660756Y-89326316D02*
X175965518Y-89326316D01*
X175965518Y-89326316D02*
X176041708Y-89364411D01*
X176041708Y-89364411D02*
X176079803Y-89402506D01*
X176079803Y-89402506D02*
X176117899Y-89478697D01*
X176117899Y-89478697D02*
X176117899Y-89592982D01*
X176117899Y-89592982D02*
X176079803Y-89669173D01*
X176079803Y-89669173D02*
X176041708Y-89707268D01*
X176041708Y-89707268D02*
X175965518Y-89745363D01*
X175965518Y-89745363D02*
X175660756Y-89745363D01*
X176613137Y-89326316D02*
X176689327Y-89326316D01*
X176689327Y-89326316D02*
X176765518Y-89364411D01*
X176765518Y-89364411D02*
X176803613Y-89402506D01*
X176803613Y-89402506D02*
X176841708Y-89478697D01*
X176841708Y-89478697D02*
X176879803Y-89631078D01*
X176879803Y-89631078D02*
X176879803Y-89821554D01*
X176879803Y-89821554D02*
X176841708Y-89973935D01*
X176841708Y-89973935D02*
X176803613Y-90050125D01*
X176803613Y-90050125D02*
X176765518Y-90088221D01*
X176765518Y-90088221D02*
X176689327Y-90126316D01*
X176689327Y-90126316D02*
X176613137Y-90126316D01*
X176613137Y-90126316D02*
X176536946Y-90088221D01*
X176536946Y-90088221D02*
X176498851Y-90050125D01*
X176498851Y-90050125D02*
X176460756Y-89973935D01*
X176460756Y-89973935D02*
X176422660Y-89821554D01*
X176422660Y-89821554D02*
X176422660Y-89631078D01*
X176422660Y-89631078D02*
X176460756Y-89478697D01*
X176460756Y-89478697D02*
X176498851Y-89402506D01*
X176498851Y-89402506D02*
X176536946Y-89364411D01*
X176536946Y-89364411D02*
X176613137Y-89326316D01*
X177565518Y-89326316D02*
X177413137Y-89326316D01*
X177413137Y-89326316D02*
X177336946Y-89364411D01*
X177336946Y-89364411D02*
X177298851Y-89402506D01*
X177298851Y-89402506D02*
X177222661Y-89516792D01*
X177222661Y-89516792D02*
X177184565Y-89669173D01*
X177184565Y-89669173D02*
X177184565Y-89973935D01*
X177184565Y-89973935D02*
X177222661Y-90050125D01*
X177222661Y-90050125D02*
X177260756Y-90088221D01*
X177260756Y-90088221D02*
X177336946Y-90126316D01*
X177336946Y-90126316D02*
X177489327Y-90126316D01*
X177489327Y-90126316D02*
X177565518Y-90088221D01*
X177565518Y-90088221D02*
X177603613Y-90050125D01*
X177603613Y-90050125D02*
X177641708Y-89973935D01*
X177641708Y-89973935D02*
X177641708Y-89783459D01*
X177641708Y-89783459D02*
X177603613Y-89707268D01*
X177603613Y-89707268D02*
X177565518Y-89669173D01*
X177565518Y-89669173D02*
X177489327Y-89631078D01*
X177489327Y-89631078D02*
X177336946Y-89631078D01*
X177336946Y-89631078D02*
X177260756Y-89669173D01*
X177260756Y-89669173D02*
X177222661Y-89707268D01*
X177222661Y-89707268D02*
X177184565Y-89783459D01*
X185260756Y-92666316D02*
X185260756Y-91866316D01*
X185260756Y-91866316D02*
X185565518Y-91866316D01*
X185565518Y-91866316D02*
X185641708Y-91904411D01*
X185641708Y-91904411D02*
X185679803Y-91942506D01*
X185679803Y-91942506D02*
X185717899Y-92018697D01*
X185717899Y-92018697D02*
X185717899Y-92132982D01*
X185717899Y-92132982D02*
X185679803Y-92209173D01*
X185679803Y-92209173D02*
X185641708Y-92247268D01*
X185641708Y-92247268D02*
X185565518Y-92285363D01*
X185565518Y-92285363D02*
X185260756Y-92285363D01*
X186479803Y-92666316D02*
X186022660Y-92666316D01*
X186251232Y-92666316D02*
X186251232Y-91866316D01*
X186251232Y-91866316D02*
X186175041Y-91980601D01*
X186175041Y-91980601D02*
X186098851Y-92056792D01*
X186098851Y-92056792D02*
X186022660Y-92094887D01*
X187165518Y-92132982D02*
X187165518Y-92666316D01*
X186975042Y-91828221D02*
X186784565Y-92399649D01*
X186784565Y-92399649D02*
X187279804Y-92399649D01*
X176022661Y-74124411D02*
X175946471Y-74086316D01*
X175946471Y-74086316D02*
X175832185Y-74086316D01*
X175832185Y-74086316D02*
X175717899Y-74124411D01*
X175717899Y-74124411D02*
X175641709Y-74200601D01*
X175641709Y-74200601D02*
X175603614Y-74276792D01*
X175603614Y-74276792D02*
X175565518Y-74429173D01*
X175565518Y-74429173D02*
X175565518Y-74543459D01*
X175565518Y-74543459D02*
X175603614Y-74695840D01*
X175603614Y-74695840D02*
X175641709Y-74772030D01*
X175641709Y-74772030D02*
X175717899Y-74848221D01*
X175717899Y-74848221D02*
X175832185Y-74886316D01*
X175832185Y-74886316D02*
X175908376Y-74886316D01*
X175908376Y-74886316D02*
X176022661Y-74848221D01*
X176022661Y-74848221D02*
X176060757Y-74810125D01*
X176060757Y-74810125D02*
X176060757Y-74543459D01*
X176060757Y-74543459D02*
X175908376Y-74543459D01*
X176403614Y-74886316D02*
X176403614Y-74086316D01*
X176403614Y-74086316D02*
X176860757Y-74886316D01*
X176860757Y-74886316D02*
X176860757Y-74086316D01*
X177241709Y-74886316D02*
X177241709Y-74086316D01*
X177241709Y-74086316D02*
X177432185Y-74086316D01*
X177432185Y-74086316D02*
X177546471Y-74124411D01*
X177546471Y-74124411D02*
X177622661Y-74200601D01*
X177622661Y-74200601D02*
X177660756Y-74276792D01*
X177660756Y-74276792D02*
X177698852Y-74429173D01*
X177698852Y-74429173D02*
X177698852Y-74543459D01*
X177698852Y-74543459D02*
X177660756Y-74695840D01*
X177660756Y-74695840D02*
X177622661Y-74772030D01*
X177622661Y-74772030D02*
X177546471Y-74848221D01*
X177546471Y-74848221D02*
X177432185Y-74886316D01*
X177432185Y-74886316D02*
X177241709Y-74886316D01*
X185794090Y-74886316D02*
X185527423Y-74505363D01*
X185336947Y-74886316D02*
X185336947Y-74086316D01*
X185336947Y-74086316D02*
X185641709Y-74086316D01*
X185641709Y-74086316D02*
X185717899Y-74124411D01*
X185717899Y-74124411D02*
X185755994Y-74162506D01*
X185755994Y-74162506D02*
X185794090Y-74238697D01*
X185794090Y-74238697D02*
X185794090Y-74352982D01*
X185794090Y-74352982D02*
X185755994Y-74429173D01*
X185755994Y-74429173D02*
X185717899Y-74467268D01*
X185717899Y-74467268D02*
X185641709Y-74505363D01*
X185641709Y-74505363D02*
X185336947Y-74505363D01*
X186098851Y-74848221D02*
X186213137Y-74886316D01*
X186213137Y-74886316D02*
X186403613Y-74886316D01*
X186403613Y-74886316D02*
X186479804Y-74848221D01*
X186479804Y-74848221D02*
X186517899Y-74810125D01*
X186517899Y-74810125D02*
X186555994Y-74733935D01*
X186555994Y-74733935D02*
X186555994Y-74657744D01*
X186555994Y-74657744D02*
X186517899Y-74581554D01*
X186517899Y-74581554D02*
X186479804Y-74543459D01*
X186479804Y-74543459D02*
X186403613Y-74505363D01*
X186403613Y-74505363D02*
X186251232Y-74467268D01*
X186251232Y-74467268D02*
X186175042Y-74429173D01*
X186175042Y-74429173D02*
X186136947Y-74391078D01*
X186136947Y-74391078D02*
X186098851Y-74314887D01*
X186098851Y-74314887D02*
X186098851Y-74238697D01*
X186098851Y-74238697D02*
X186136947Y-74162506D01*
X186136947Y-74162506D02*
X186175042Y-74124411D01*
X186175042Y-74124411D02*
X186251232Y-74086316D01*
X186251232Y-74086316D02*
X186441709Y-74086316D01*
X186441709Y-74086316D02*
X186555994Y-74124411D01*
X186784566Y-74086316D02*
X187241709Y-74086316D01*
X187013137Y-74886316D02*
X187013137Y-74086316D01*
X175660756Y-72346316D02*
X175660756Y-71546316D01*
X175660756Y-71546316D02*
X175965518Y-71546316D01*
X175965518Y-71546316D02*
X176041708Y-71584411D01*
X176041708Y-71584411D02*
X176079803Y-71622506D01*
X176079803Y-71622506D02*
X176117899Y-71698697D01*
X176117899Y-71698697D02*
X176117899Y-71812982D01*
X176117899Y-71812982D02*
X176079803Y-71889173D01*
X176079803Y-71889173D02*
X176041708Y-71927268D01*
X176041708Y-71927268D02*
X175965518Y-71965363D01*
X175965518Y-71965363D02*
X175660756Y-71965363D01*
X176613137Y-71546316D02*
X176689327Y-71546316D01*
X176689327Y-71546316D02*
X176765518Y-71584411D01*
X176765518Y-71584411D02*
X176803613Y-71622506D01*
X176803613Y-71622506D02*
X176841708Y-71698697D01*
X176841708Y-71698697D02*
X176879803Y-71851078D01*
X176879803Y-71851078D02*
X176879803Y-72041554D01*
X176879803Y-72041554D02*
X176841708Y-72193935D01*
X176841708Y-72193935D02*
X176803613Y-72270125D01*
X176803613Y-72270125D02*
X176765518Y-72308221D01*
X176765518Y-72308221D02*
X176689327Y-72346316D01*
X176689327Y-72346316D02*
X176613137Y-72346316D01*
X176613137Y-72346316D02*
X176536946Y-72308221D01*
X176536946Y-72308221D02*
X176498851Y-72270125D01*
X176498851Y-72270125D02*
X176460756Y-72193935D01*
X176460756Y-72193935D02*
X176422660Y-72041554D01*
X176422660Y-72041554D02*
X176422660Y-71851078D01*
X176422660Y-71851078D02*
X176460756Y-71698697D01*
X176460756Y-71698697D02*
X176498851Y-71622506D01*
X176498851Y-71622506D02*
X176536946Y-71584411D01*
X176536946Y-71584411D02*
X176613137Y-71546316D01*
X177375042Y-71546316D02*
X177451232Y-71546316D01*
X177451232Y-71546316D02*
X177527423Y-71584411D01*
X177527423Y-71584411D02*
X177565518Y-71622506D01*
X177565518Y-71622506D02*
X177603613Y-71698697D01*
X177603613Y-71698697D02*
X177641708Y-71851078D01*
X177641708Y-71851078D02*
X177641708Y-72041554D01*
X177641708Y-72041554D02*
X177603613Y-72193935D01*
X177603613Y-72193935D02*
X177565518Y-72270125D01*
X177565518Y-72270125D02*
X177527423Y-72308221D01*
X177527423Y-72308221D02*
X177451232Y-72346316D01*
X177451232Y-72346316D02*
X177375042Y-72346316D01*
X177375042Y-72346316D02*
X177298851Y-72308221D01*
X177298851Y-72308221D02*
X177260756Y-72270125D01*
X177260756Y-72270125D02*
X177222661Y-72193935D01*
X177222661Y-72193935D02*
X177184565Y-72041554D01*
X177184565Y-72041554D02*
X177184565Y-71851078D01*
X177184565Y-71851078D02*
X177222661Y-71698697D01*
X177222661Y-71698697D02*
X177260756Y-71622506D01*
X177260756Y-71622506D02*
X177298851Y-71584411D01*
X177298851Y-71584411D02*
X177375042Y-71546316D01*
X185260756Y-95206316D02*
X185260756Y-94406316D01*
X185260756Y-94406316D02*
X185565518Y-94406316D01*
X185565518Y-94406316D02*
X185641708Y-94444411D01*
X185641708Y-94444411D02*
X185679803Y-94482506D01*
X185679803Y-94482506D02*
X185717899Y-94558697D01*
X185717899Y-94558697D02*
X185717899Y-94672982D01*
X185717899Y-94672982D02*
X185679803Y-94749173D01*
X185679803Y-94749173D02*
X185641708Y-94787268D01*
X185641708Y-94787268D02*
X185565518Y-94825363D01*
X185565518Y-94825363D02*
X185260756Y-94825363D01*
X186479803Y-95206316D02*
X186022660Y-95206316D01*
X186251232Y-95206316D02*
X186251232Y-94406316D01*
X186251232Y-94406316D02*
X186175041Y-94520601D01*
X186175041Y-94520601D02*
X186098851Y-94596792D01*
X186098851Y-94596792D02*
X186022660Y-94634887D01*
X187165518Y-94406316D02*
X187013137Y-94406316D01*
X187013137Y-94406316D02*
X186936946Y-94444411D01*
X186936946Y-94444411D02*
X186898851Y-94482506D01*
X186898851Y-94482506D02*
X186822661Y-94596792D01*
X186822661Y-94596792D02*
X186784565Y-94749173D01*
X186784565Y-94749173D02*
X186784565Y-95053935D01*
X186784565Y-95053935D02*
X186822661Y-95130125D01*
X186822661Y-95130125D02*
X186860756Y-95168221D01*
X186860756Y-95168221D02*
X186936946Y-95206316D01*
X186936946Y-95206316D02*
X187089327Y-95206316D01*
X187089327Y-95206316D02*
X187165518Y-95168221D01*
X187165518Y-95168221D02*
X187203613Y-95130125D01*
X187203613Y-95130125D02*
X187241708Y-95053935D01*
X187241708Y-95053935D02*
X187241708Y-94863459D01*
X187241708Y-94863459D02*
X187203613Y-94787268D01*
X187203613Y-94787268D02*
X187165518Y-94749173D01*
X187165518Y-94749173D02*
X187089327Y-94711078D01*
X187089327Y-94711078D02*
X186936946Y-94711078D01*
X186936946Y-94711078D02*
X186860756Y-94749173D01*
X186860756Y-94749173D02*
X186822661Y-94787268D01*
X186822661Y-94787268D02*
X186784565Y-94863459D01*
X185165518Y-76626316D02*
X185432185Y-77426316D01*
X185432185Y-77426316D02*
X185698851Y-76626316D01*
X186422661Y-77350125D02*
X186384565Y-77388221D01*
X186384565Y-77388221D02*
X186270280Y-77426316D01*
X186270280Y-77426316D02*
X186194089Y-77426316D01*
X186194089Y-77426316D02*
X186079803Y-77388221D01*
X186079803Y-77388221D02*
X186003613Y-77312030D01*
X186003613Y-77312030D02*
X185965518Y-77235840D01*
X185965518Y-77235840D02*
X185927422Y-77083459D01*
X185927422Y-77083459D02*
X185927422Y-76969173D01*
X185927422Y-76969173D02*
X185965518Y-76816792D01*
X185965518Y-76816792D02*
X186003613Y-76740601D01*
X186003613Y-76740601D02*
X186079803Y-76664411D01*
X186079803Y-76664411D02*
X186194089Y-76626316D01*
X186194089Y-76626316D02*
X186270280Y-76626316D01*
X186270280Y-76626316D02*
X186384565Y-76664411D01*
X186384565Y-76664411D02*
X186422661Y-76702506D01*
X187222661Y-77350125D02*
X187184565Y-77388221D01*
X187184565Y-77388221D02*
X187070280Y-77426316D01*
X187070280Y-77426316D02*
X186994089Y-77426316D01*
X186994089Y-77426316D02*
X186879803Y-77388221D01*
X186879803Y-77388221D02*
X186803613Y-77312030D01*
X186803613Y-77312030D02*
X186765518Y-77235840D01*
X186765518Y-77235840D02*
X186727422Y-77083459D01*
X186727422Y-77083459D02*
X186727422Y-76969173D01*
X186727422Y-76969173D02*
X186765518Y-76816792D01*
X186765518Y-76816792D02*
X186803613Y-76740601D01*
X186803613Y-76740601D02*
X186879803Y-76664411D01*
X186879803Y-76664411D02*
X186994089Y-76626316D01*
X186994089Y-76626316D02*
X187070280Y-76626316D01*
X187070280Y-76626316D02*
X187184565Y-76664411D01*
X187184565Y-76664411D02*
X187222661Y-76702506D01*
X175660756Y-82506316D02*
X175660756Y-81706316D01*
X175660756Y-81706316D02*
X175965518Y-81706316D01*
X175965518Y-81706316D02*
X176041708Y-81744411D01*
X176041708Y-81744411D02*
X176079803Y-81782506D01*
X176079803Y-81782506D02*
X176117899Y-81858697D01*
X176117899Y-81858697D02*
X176117899Y-81972982D01*
X176117899Y-81972982D02*
X176079803Y-82049173D01*
X176079803Y-82049173D02*
X176041708Y-82087268D01*
X176041708Y-82087268D02*
X175965518Y-82125363D01*
X175965518Y-82125363D02*
X175660756Y-82125363D01*
X176613137Y-81706316D02*
X176689327Y-81706316D01*
X176689327Y-81706316D02*
X176765518Y-81744411D01*
X176765518Y-81744411D02*
X176803613Y-81782506D01*
X176803613Y-81782506D02*
X176841708Y-81858697D01*
X176841708Y-81858697D02*
X176879803Y-82011078D01*
X176879803Y-82011078D02*
X176879803Y-82201554D01*
X176879803Y-82201554D02*
X176841708Y-82353935D01*
X176841708Y-82353935D02*
X176803613Y-82430125D01*
X176803613Y-82430125D02*
X176765518Y-82468221D01*
X176765518Y-82468221D02*
X176689327Y-82506316D01*
X176689327Y-82506316D02*
X176613137Y-82506316D01*
X176613137Y-82506316D02*
X176536946Y-82468221D01*
X176536946Y-82468221D02*
X176498851Y-82430125D01*
X176498851Y-82430125D02*
X176460756Y-82353935D01*
X176460756Y-82353935D02*
X176422660Y-82201554D01*
X176422660Y-82201554D02*
X176422660Y-82011078D01*
X176422660Y-82011078D02*
X176460756Y-81858697D01*
X176460756Y-81858697D02*
X176498851Y-81782506D01*
X176498851Y-81782506D02*
X176536946Y-81744411D01*
X176536946Y-81744411D02*
X176613137Y-81706316D01*
X177146470Y-81706316D02*
X177641708Y-81706316D01*
X177641708Y-81706316D02*
X177375042Y-82011078D01*
X177375042Y-82011078D02*
X177489327Y-82011078D01*
X177489327Y-82011078D02*
X177565518Y-82049173D01*
X177565518Y-82049173D02*
X177603613Y-82087268D01*
X177603613Y-82087268D02*
X177641708Y-82163459D01*
X177641708Y-82163459D02*
X177641708Y-82353935D01*
X177641708Y-82353935D02*
X177603613Y-82430125D01*
X177603613Y-82430125D02*
X177565518Y-82468221D01*
X177565518Y-82468221D02*
X177489327Y-82506316D01*
X177489327Y-82506316D02*
X177260756Y-82506316D01*
X177260756Y-82506316D02*
X177184565Y-82468221D01*
X177184565Y-82468221D02*
X177146470Y-82430125D01*
X185260756Y-90126316D02*
X185260756Y-89326316D01*
X185260756Y-89326316D02*
X185565518Y-89326316D01*
X185565518Y-89326316D02*
X185641708Y-89364411D01*
X185641708Y-89364411D02*
X185679803Y-89402506D01*
X185679803Y-89402506D02*
X185717899Y-89478697D01*
X185717899Y-89478697D02*
X185717899Y-89592982D01*
X185717899Y-89592982D02*
X185679803Y-89669173D01*
X185679803Y-89669173D02*
X185641708Y-89707268D01*
X185641708Y-89707268D02*
X185565518Y-89745363D01*
X185565518Y-89745363D02*
X185260756Y-89745363D01*
X186479803Y-90126316D02*
X186022660Y-90126316D01*
X186251232Y-90126316D02*
X186251232Y-89326316D01*
X186251232Y-89326316D02*
X186175041Y-89440601D01*
X186175041Y-89440601D02*
X186098851Y-89516792D01*
X186098851Y-89516792D02*
X186022660Y-89554887D01*
X187203613Y-89326316D02*
X186822661Y-89326316D01*
X186822661Y-89326316D02*
X186784565Y-89707268D01*
X186784565Y-89707268D02*
X186822661Y-89669173D01*
X186822661Y-89669173D02*
X186898851Y-89631078D01*
X186898851Y-89631078D02*
X187089327Y-89631078D01*
X187089327Y-89631078D02*
X187165518Y-89669173D01*
X187165518Y-89669173D02*
X187203613Y-89707268D01*
X187203613Y-89707268D02*
X187241708Y-89783459D01*
X187241708Y-89783459D02*
X187241708Y-89973935D01*
X187241708Y-89973935D02*
X187203613Y-90050125D01*
X187203613Y-90050125D02*
X187165518Y-90088221D01*
X187165518Y-90088221D02*
X187089327Y-90126316D01*
X187089327Y-90126316D02*
X186898851Y-90126316D01*
X186898851Y-90126316D02*
X186822661Y-90088221D01*
X186822661Y-90088221D02*
X186784565Y-90050125D01*
X185260756Y-97746316D02*
X185260756Y-96946316D01*
X185260756Y-96946316D02*
X185565518Y-96946316D01*
X185565518Y-96946316D02*
X185641708Y-96984411D01*
X185641708Y-96984411D02*
X185679803Y-97022506D01*
X185679803Y-97022506D02*
X185717899Y-97098697D01*
X185717899Y-97098697D02*
X185717899Y-97212982D01*
X185717899Y-97212982D02*
X185679803Y-97289173D01*
X185679803Y-97289173D02*
X185641708Y-97327268D01*
X185641708Y-97327268D02*
X185565518Y-97365363D01*
X185565518Y-97365363D02*
X185260756Y-97365363D01*
X186479803Y-97746316D02*
X186022660Y-97746316D01*
X186251232Y-97746316D02*
X186251232Y-96946316D01*
X186251232Y-96946316D02*
X186175041Y-97060601D01*
X186175041Y-97060601D02*
X186098851Y-97136792D01*
X186098851Y-97136792D02*
X186022660Y-97174887D01*
X186975042Y-96946316D02*
X187051232Y-96946316D01*
X187051232Y-96946316D02*
X187127423Y-96984411D01*
X187127423Y-96984411D02*
X187165518Y-97022506D01*
X187165518Y-97022506D02*
X187203613Y-97098697D01*
X187203613Y-97098697D02*
X187241708Y-97251078D01*
X187241708Y-97251078D02*
X187241708Y-97441554D01*
X187241708Y-97441554D02*
X187203613Y-97593935D01*
X187203613Y-97593935D02*
X187165518Y-97670125D01*
X187165518Y-97670125D02*
X187127423Y-97708221D01*
X187127423Y-97708221D02*
X187051232Y-97746316D01*
X187051232Y-97746316D02*
X186975042Y-97746316D01*
X186975042Y-97746316D02*
X186898851Y-97708221D01*
X186898851Y-97708221D02*
X186860756Y-97670125D01*
X186860756Y-97670125D02*
X186822661Y-97593935D01*
X186822661Y-97593935D02*
X186784565Y-97441554D01*
X186784565Y-97441554D02*
X186784565Y-97251078D01*
X186784565Y-97251078D02*
X186822661Y-97098697D01*
X186822661Y-97098697D02*
X186860756Y-97022506D01*
X186860756Y-97022506D02*
X186898851Y-96984411D01*
X186898851Y-96984411D02*
X186975042Y-96946316D01*
X185679804Y-69806316D02*
X185413137Y-69425363D01*
X185222661Y-69806316D02*
X185222661Y-69006316D01*
X185222661Y-69006316D02*
X185527423Y-69006316D01*
X185527423Y-69006316D02*
X185603613Y-69044411D01*
X185603613Y-69044411D02*
X185641708Y-69082506D01*
X185641708Y-69082506D02*
X185679804Y-69158697D01*
X185679804Y-69158697D02*
X185679804Y-69272982D01*
X185679804Y-69272982D02*
X185641708Y-69349173D01*
X185641708Y-69349173D02*
X185603613Y-69387268D01*
X185603613Y-69387268D02*
X185527423Y-69425363D01*
X185527423Y-69425363D02*
X185222661Y-69425363D01*
X185984565Y-69577744D02*
X186365518Y-69577744D01*
X185908375Y-69806316D02*
X186175042Y-69006316D01*
X186175042Y-69006316D02*
X186441708Y-69806316D01*
X186632184Y-69006316D02*
X186822660Y-69806316D01*
X186822660Y-69806316D02*
X186975041Y-69234887D01*
X186975041Y-69234887D02*
X187127422Y-69806316D01*
X187127422Y-69806316D02*
X187317899Y-69006316D01*
X175660756Y-87586316D02*
X175660756Y-86786316D01*
X175660756Y-86786316D02*
X175965518Y-86786316D01*
X175965518Y-86786316D02*
X176041708Y-86824411D01*
X176041708Y-86824411D02*
X176079803Y-86862506D01*
X176079803Y-86862506D02*
X176117899Y-86938697D01*
X176117899Y-86938697D02*
X176117899Y-87052982D01*
X176117899Y-87052982D02*
X176079803Y-87129173D01*
X176079803Y-87129173D02*
X176041708Y-87167268D01*
X176041708Y-87167268D02*
X175965518Y-87205363D01*
X175965518Y-87205363D02*
X175660756Y-87205363D01*
X176613137Y-86786316D02*
X176689327Y-86786316D01*
X176689327Y-86786316D02*
X176765518Y-86824411D01*
X176765518Y-86824411D02*
X176803613Y-86862506D01*
X176803613Y-86862506D02*
X176841708Y-86938697D01*
X176841708Y-86938697D02*
X176879803Y-87091078D01*
X176879803Y-87091078D02*
X176879803Y-87281554D01*
X176879803Y-87281554D02*
X176841708Y-87433935D01*
X176841708Y-87433935D02*
X176803613Y-87510125D01*
X176803613Y-87510125D02*
X176765518Y-87548221D01*
X176765518Y-87548221D02*
X176689327Y-87586316D01*
X176689327Y-87586316D02*
X176613137Y-87586316D01*
X176613137Y-87586316D02*
X176536946Y-87548221D01*
X176536946Y-87548221D02*
X176498851Y-87510125D01*
X176498851Y-87510125D02*
X176460756Y-87433935D01*
X176460756Y-87433935D02*
X176422660Y-87281554D01*
X176422660Y-87281554D02*
X176422660Y-87091078D01*
X176422660Y-87091078D02*
X176460756Y-86938697D01*
X176460756Y-86938697D02*
X176498851Y-86862506D01*
X176498851Y-86862506D02*
X176536946Y-86824411D01*
X176536946Y-86824411D02*
X176613137Y-86786316D01*
X177603613Y-86786316D02*
X177222661Y-86786316D01*
X177222661Y-86786316D02*
X177184565Y-87167268D01*
X177184565Y-87167268D02*
X177222661Y-87129173D01*
X177222661Y-87129173D02*
X177298851Y-87091078D01*
X177298851Y-87091078D02*
X177489327Y-87091078D01*
X177489327Y-87091078D02*
X177565518Y-87129173D01*
X177565518Y-87129173D02*
X177603613Y-87167268D01*
X177603613Y-87167268D02*
X177641708Y-87243459D01*
X177641708Y-87243459D02*
X177641708Y-87433935D01*
X177641708Y-87433935D02*
X177603613Y-87510125D01*
X177603613Y-87510125D02*
X177565518Y-87548221D01*
X177565518Y-87548221D02*
X177489327Y-87586316D01*
X177489327Y-87586316D02*
X177298851Y-87586316D01*
X177298851Y-87586316D02*
X177222661Y-87548221D01*
X177222661Y-87548221D02*
X177184565Y-87510125D01*
X185622661Y-71584411D02*
X185546471Y-71546316D01*
X185546471Y-71546316D02*
X185432185Y-71546316D01*
X185432185Y-71546316D02*
X185317899Y-71584411D01*
X185317899Y-71584411D02*
X185241709Y-71660601D01*
X185241709Y-71660601D02*
X185203614Y-71736792D01*
X185203614Y-71736792D02*
X185165518Y-71889173D01*
X185165518Y-71889173D02*
X185165518Y-72003459D01*
X185165518Y-72003459D02*
X185203614Y-72155840D01*
X185203614Y-72155840D02*
X185241709Y-72232030D01*
X185241709Y-72232030D02*
X185317899Y-72308221D01*
X185317899Y-72308221D02*
X185432185Y-72346316D01*
X185432185Y-72346316D02*
X185508376Y-72346316D01*
X185508376Y-72346316D02*
X185622661Y-72308221D01*
X185622661Y-72308221D02*
X185660757Y-72270125D01*
X185660757Y-72270125D02*
X185660757Y-72003459D01*
X185660757Y-72003459D02*
X185508376Y-72003459D01*
X186003614Y-72346316D02*
X186003614Y-71546316D01*
X186003614Y-71546316D02*
X186460757Y-72346316D01*
X186460757Y-72346316D02*
X186460757Y-71546316D01*
X186841709Y-72346316D02*
X186841709Y-71546316D01*
X186841709Y-71546316D02*
X187032185Y-71546316D01*
X187032185Y-71546316D02*
X187146471Y-71584411D01*
X187146471Y-71584411D02*
X187222661Y-71660601D01*
X187222661Y-71660601D02*
X187260756Y-71736792D01*
X187260756Y-71736792D02*
X187298852Y-71889173D01*
X187298852Y-71889173D02*
X187298852Y-72003459D01*
X187298852Y-72003459D02*
X187260756Y-72155840D01*
X187260756Y-72155840D02*
X187222661Y-72232030D01*
X187222661Y-72232030D02*
X187146471Y-72308221D01*
X187146471Y-72308221D02*
X187032185Y-72346316D01*
X187032185Y-72346316D02*
X186841709Y-72346316D01*
X175660756Y-92666316D02*
X175660756Y-91866316D01*
X175660756Y-91866316D02*
X175965518Y-91866316D01*
X175965518Y-91866316D02*
X176041708Y-91904411D01*
X176041708Y-91904411D02*
X176079803Y-91942506D01*
X176079803Y-91942506D02*
X176117899Y-92018697D01*
X176117899Y-92018697D02*
X176117899Y-92132982D01*
X176117899Y-92132982D02*
X176079803Y-92209173D01*
X176079803Y-92209173D02*
X176041708Y-92247268D01*
X176041708Y-92247268D02*
X175965518Y-92285363D01*
X175965518Y-92285363D02*
X175660756Y-92285363D01*
X176613137Y-91866316D02*
X176689327Y-91866316D01*
X176689327Y-91866316D02*
X176765518Y-91904411D01*
X176765518Y-91904411D02*
X176803613Y-91942506D01*
X176803613Y-91942506D02*
X176841708Y-92018697D01*
X176841708Y-92018697D02*
X176879803Y-92171078D01*
X176879803Y-92171078D02*
X176879803Y-92361554D01*
X176879803Y-92361554D02*
X176841708Y-92513935D01*
X176841708Y-92513935D02*
X176803613Y-92590125D01*
X176803613Y-92590125D02*
X176765518Y-92628221D01*
X176765518Y-92628221D02*
X176689327Y-92666316D01*
X176689327Y-92666316D02*
X176613137Y-92666316D01*
X176613137Y-92666316D02*
X176536946Y-92628221D01*
X176536946Y-92628221D02*
X176498851Y-92590125D01*
X176498851Y-92590125D02*
X176460756Y-92513935D01*
X176460756Y-92513935D02*
X176422660Y-92361554D01*
X176422660Y-92361554D02*
X176422660Y-92171078D01*
X176422660Y-92171078D02*
X176460756Y-92018697D01*
X176460756Y-92018697D02*
X176498851Y-91942506D01*
X176498851Y-91942506D02*
X176536946Y-91904411D01*
X176536946Y-91904411D02*
X176613137Y-91866316D01*
X177146470Y-91866316D02*
X177679804Y-91866316D01*
X177679804Y-91866316D02*
X177336946Y-92666316D01*
X185260756Y-85046316D02*
X185260756Y-84246316D01*
X185260756Y-84246316D02*
X185565518Y-84246316D01*
X185565518Y-84246316D02*
X185641708Y-84284411D01*
X185641708Y-84284411D02*
X185679803Y-84322506D01*
X185679803Y-84322506D02*
X185717899Y-84398697D01*
X185717899Y-84398697D02*
X185717899Y-84512982D01*
X185717899Y-84512982D02*
X185679803Y-84589173D01*
X185679803Y-84589173D02*
X185641708Y-84627268D01*
X185641708Y-84627268D02*
X185565518Y-84665363D01*
X185565518Y-84665363D02*
X185260756Y-84665363D01*
X186479803Y-85046316D02*
X186022660Y-85046316D01*
X186251232Y-85046316D02*
X186251232Y-84246316D01*
X186251232Y-84246316D02*
X186175041Y-84360601D01*
X186175041Y-84360601D02*
X186098851Y-84436792D01*
X186098851Y-84436792D02*
X186022660Y-84474887D01*
X186860756Y-85046316D02*
X187013137Y-85046316D01*
X187013137Y-85046316D02*
X187089327Y-85008221D01*
X187089327Y-85008221D02*
X187127423Y-84970125D01*
X187127423Y-84970125D02*
X187203613Y-84855840D01*
X187203613Y-84855840D02*
X187241708Y-84703459D01*
X187241708Y-84703459D02*
X187241708Y-84398697D01*
X187241708Y-84398697D02*
X187203613Y-84322506D01*
X187203613Y-84322506D02*
X187165518Y-84284411D01*
X187165518Y-84284411D02*
X187089327Y-84246316D01*
X187089327Y-84246316D02*
X186936946Y-84246316D01*
X186936946Y-84246316D02*
X186860756Y-84284411D01*
X186860756Y-84284411D02*
X186822661Y-84322506D01*
X186822661Y-84322506D02*
X186784565Y-84398697D01*
X186784565Y-84398697D02*
X186784565Y-84589173D01*
X186784565Y-84589173D02*
X186822661Y-84665363D01*
X186822661Y-84665363D02*
X186860756Y-84703459D01*
X186860756Y-84703459D02*
X186936946Y-84741554D01*
X186936946Y-84741554D02*
X187089327Y-84741554D01*
X187089327Y-84741554D02*
X187165518Y-84703459D01*
X187165518Y-84703459D02*
X187203613Y-84665363D01*
X187203613Y-84665363D02*
X187241708Y-84589173D01*
X185260756Y-87586316D02*
X185260756Y-86786316D01*
X185260756Y-86786316D02*
X185565518Y-86786316D01*
X185565518Y-86786316D02*
X185641708Y-86824411D01*
X185641708Y-86824411D02*
X185679803Y-86862506D01*
X185679803Y-86862506D02*
X185717899Y-86938697D01*
X185717899Y-86938697D02*
X185717899Y-87052982D01*
X185717899Y-87052982D02*
X185679803Y-87129173D01*
X185679803Y-87129173D02*
X185641708Y-87167268D01*
X185641708Y-87167268D02*
X185565518Y-87205363D01*
X185565518Y-87205363D02*
X185260756Y-87205363D01*
X186479803Y-87586316D02*
X186022660Y-87586316D01*
X186251232Y-87586316D02*
X186251232Y-86786316D01*
X186251232Y-86786316D02*
X186175041Y-86900601D01*
X186175041Y-86900601D02*
X186098851Y-86976792D01*
X186098851Y-86976792D02*
X186022660Y-87014887D01*
X186936946Y-87129173D02*
X186860756Y-87091078D01*
X186860756Y-87091078D02*
X186822661Y-87052982D01*
X186822661Y-87052982D02*
X186784565Y-86976792D01*
X186784565Y-86976792D02*
X186784565Y-86938697D01*
X186784565Y-86938697D02*
X186822661Y-86862506D01*
X186822661Y-86862506D02*
X186860756Y-86824411D01*
X186860756Y-86824411D02*
X186936946Y-86786316D01*
X186936946Y-86786316D02*
X187089327Y-86786316D01*
X187089327Y-86786316D02*
X187165518Y-86824411D01*
X187165518Y-86824411D02*
X187203613Y-86862506D01*
X187203613Y-86862506D02*
X187241708Y-86938697D01*
X187241708Y-86938697D02*
X187241708Y-86976792D01*
X187241708Y-86976792D02*
X187203613Y-87052982D01*
X187203613Y-87052982D02*
X187165518Y-87091078D01*
X187165518Y-87091078D02*
X187089327Y-87129173D01*
X187089327Y-87129173D02*
X186936946Y-87129173D01*
X186936946Y-87129173D02*
X186860756Y-87167268D01*
X186860756Y-87167268D02*
X186822661Y-87205363D01*
X186822661Y-87205363D02*
X186784565Y-87281554D01*
X186784565Y-87281554D02*
X186784565Y-87433935D01*
X186784565Y-87433935D02*
X186822661Y-87510125D01*
X186822661Y-87510125D02*
X186860756Y-87548221D01*
X186860756Y-87548221D02*
X186936946Y-87586316D01*
X186936946Y-87586316D02*
X187089327Y-87586316D01*
X187089327Y-87586316D02*
X187165518Y-87548221D01*
X187165518Y-87548221D02*
X187203613Y-87510125D01*
X187203613Y-87510125D02*
X187241708Y-87433935D01*
X187241708Y-87433935D02*
X187241708Y-87281554D01*
X187241708Y-87281554D02*
X187203613Y-87205363D01*
X187203613Y-87205363D02*
X187165518Y-87167268D01*
X187165518Y-87167268D02*
X187089327Y-87129173D01*
X185260756Y-82506316D02*
X185260756Y-81706316D01*
X185260756Y-81706316D02*
X185565518Y-81706316D01*
X185565518Y-81706316D02*
X185641708Y-81744411D01*
X185641708Y-81744411D02*
X185679803Y-81782506D01*
X185679803Y-81782506D02*
X185717899Y-81858697D01*
X185717899Y-81858697D02*
X185717899Y-81972982D01*
X185717899Y-81972982D02*
X185679803Y-82049173D01*
X185679803Y-82049173D02*
X185641708Y-82087268D01*
X185641708Y-82087268D02*
X185565518Y-82125363D01*
X185565518Y-82125363D02*
X185260756Y-82125363D01*
X186022660Y-81782506D02*
X186060756Y-81744411D01*
X186060756Y-81744411D02*
X186136946Y-81706316D01*
X186136946Y-81706316D02*
X186327422Y-81706316D01*
X186327422Y-81706316D02*
X186403613Y-81744411D01*
X186403613Y-81744411D02*
X186441708Y-81782506D01*
X186441708Y-81782506D02*
X186479803Y-81858697D01*
X186479803Y-81858697D02*
X186479803Y-81934887D01*
X186479803Y-81934887D02*
X186441708Y-82049173D01*
X186441708Y-82049173D02*
X185984565Y-82506316D01*
X185984565Y-82506316D02*
X186479803Y-82506316D01*
X186975042Y-81706316D02*
X187051232Y-81706316D01*
X187051232Y-81706316D02*
X187127423Y-81744411D01*
X187127423Y-81744411D02*
X187165518Y-81782506D01*
X187165518Y-81782506D02*
X187203613Y-81858697D01*
X187203613Y-81858697D02*
X187241708Y-82011078D01*
X187241708Y-82011078D02*
X187241708Y-82201554D01*
X187241708Y-82201554D02*
X187203613Y-82353935D01*
X187203613Y-82353935D02*
X187165518Y-82430125D01*
X187165518Y-82430125D02*
X187127423Y-82468221D01*
X187127423Y-82468221D02*
X187051232Y-82506316D01*
X187051232Y-82506316D02*
X186975042Y-82506316D01*
X186975042Y-82506316D02*
X186898851Y-82468221D01*
X186898851Y-82468221D02*
X186860756Y-82430125D01*
X186860756Y-82430125D02*
X186822661Y-82353935D01*
X186822661Y-82353935D02*
X186784565Y-82201554D01*
X186784565Y-82201554D02*
X186784565Y-82011078D01*
X186784565Y-82011078D02*
X186822661Y-81858697D01*
X186822661Y-81858697D02*
X186860756Y-81782506D01*
X186860756Y-81782506D02*
X186898851Y-81744411D01*
X186898851Y-81744411D02*
X186975042Y-81706316D01*
X176022661Y-76664411D02*
X175946471Y-76626316D01*
X175946471Y-76626316D02*
X175832185Y-76626316D01*
X175832185Y-76626316D02*
X175717899Y-76664411D01*
X175717899Y-76664411D02*
X175641709Y-76740601D01*
X175641709Y-76740601D02*
X175603614Y-76816792D01*
X175603614Y-76816792D02*
X175565518Y-76969173D01*
X175565518Y-76969173D02*
X175565518Y-77083459D01*
X175565518Y-77083459D02*
X175603614Y-77235840D01*
X175603614Y-77235840D02*
X175641709Y-77312030D01*
X175641709Y-77312030D02*
X175717899Y-77388221D01*
X175717899Y-77388221D02*
X175832185Y-77426316D01*
X175832185Y-77426316D02*
X175908376Y-77426316D01*
X175908376Y-77426316D02*
X176022661Y-77388221D01*
X176022661Y-77388221D02*
X176060757Y-77350125D01*
X176060757Y-77350125D02*
X176060757Y-77083459D01*
X176060757Y-77083459D02*
X175908376Y-77083459D01*
X176403614Y-77426316D02*
X176403614Y-76626316D01*
X176403614Y-76626316D02*
X176860757Y-77426316D01*
X176860757Y-77426316D02*
X176860757Y-76626316D01*
X177241709Y-77426316D02*
X177241709Y-76626316D01*
X177241709Y-76626316D02*
X177432185Y-76626316D01*
X177432185Y-76626316D02*
X177546471Y-76664411D01*
X177546471Y-76664411D02*
X177622661Y-76740601D01*
X177622661Y-76740601D02*
X177660756Y-76816792D01*
X177660756Y-76816792D02*
X177698852Y-76969173D01*
X177698852Y-76969173D02*
X177698852Y-77083459D01*
X177698852Y-77083459D02*
X177660756Y-77235840D01*
X177660756Y-77235840D02*
X177622661Y-77312030D01*
X177622661Y-77312030D02*
X177546471Y-77388221D01*
X177546471Y-77388221D02*
X177432185Y-77426316D01*
X177432185Y-77426316D02*
X177241709Y-77426316D01*
X175660756Y-85046316D02*
X175660756Y-84246316D01*
X175660756Y-84246316D02*
X175965518Y-84246316D01*
X175965518Y-84246316D02*
X176041708Y-84284411D01*
X176041708Y-84284411D02*
X176079803Y-84322506D01*
X176079803Y-84322506D02*
X176117899Y-84398697D01*
X176117899Y-84398697D02*
X176117899Y-84512982D01*
X176117899Y-84512982D02*
X176079803Y-84589173D01*
X176079803Y-84589173D02*
X176041708Y-84627268D01*
X176041708Y-84627268D02*
X175965518Y-84665363D01*
X175965518Y-84665363D02*
X175660756Y-84665363D01*
X176613137Y-84246316D02*
X176689327Y-84246316D01*
X176689327Y-84246316D02*
X176765518Y-84284411D01*
X176765518Y-84284411D02*
X176803613Y-84322506D01*
X176803613Y-84322506D02*
X176841708Y-84398697D01*
X176841708Y-84398697D02*
X176879803Y-84551078D01*
X176879803Y-84551078D02*
X176879803Y-84741554D01*
X176879803Y-84741554D02*
X176841708Y-84893935D01*
X176841708Y-84893935D02*
X176803613Y-84970125D01*
X176803613Y-84970125D02*
X176765518Y-85008221D01*
X176765518Y-85008221D02*
X176689327Y-85046316D01*
X176689327Y-85046316D02*
X176613137Y-85046316D01*
X176613137Y-85046316D02*
X176536946Y-85008221D01*
X176536946Y-85008221D02*
X176498851Y-84970125D01*
X176498851Y-84970125D02*
X176460756Y-84893935D01*
X176460756Y-84893935D02*
X176422660Y-84741554D01*
X176422660Y-84741554D02*
X176422660Y-84551078D01*
X176422660Y-84551078D02*
X176460756Y-84398697D01*
X176460756Y-84398697D02*
X176498851Y-84322506D01*
X176498851Y-84322506D02*
X176536946Y-84284411D01*
X176536946Y-84284411D02*
X176613137Y-84246316D01*
X177565518Y-84512982D02*
X177565518Y-85046316D01*
X177375042Y-84208221D02*
X177184565Y-84779649D01*
X177184565Y-84779649D02*
X177679804Y-84779649D01*
X175660756Y-95206316D02*
X175660756Y-94406316D01*
X175660756Y-94406316D02*
X175965518Y-94406316D01*
X175965518Y-94406316D02*
X176041708Y-94444411D01*
X176041708Y-94444411D02*
X176079803Y-94482506D01*
X176079803Y-94482506D02*
X176117899Y-94558697D01*
X176117899Y-94558697D02*
X176117899Y-94672982D01*
X176117899Y-94672982D02*
X176079803Y-94749173D01*
X176079803Y-94749173D02*
X176041708Y-94787268D01*
X176041708Y-94787268D02*
X175965518Y-94825363D01*
X175965518Y-94825363D02*
X175660756Y-94825363D01*
X176613137Y-94406316D02*
X176689327Y-94406316D01*
X176689327Y-94406316D02*
X176765518Y-94444411D01*
X176765518Y-94444411D02*
X176803613Y-94482506D01*
X176803613Y-94482506D02*
X176841708Y-94558697D01*
X176841708Y-94558697D02*
X176879803Y-94711078D01*
X176879803Y-94711078D02*
X176879803Y-94901554D01*
X176879803Y-94901554D02*
X176841708Y-95053935D01*
X176841708Y-95053935D02*
X176803613Y-95130125D01*
X176803613Y-95130125D02*
X176765518Y-95168221D01*
X176765518Y-95168221D02*
X176689327Y-95206316D01*
X176689327Y-95206316D02*
X176613137Y-95206316D01*
X176613137Y-95206316D02*
X176536946Y-95168221D01*
X176536946Y-95168221D02*
X176498851Y-95130125D01*
X176498851Y-95130125D02*
X176460756Y-95053935D01*
X176460756Y-95053935D02*
X176422660Y-94901554D01*
X176422660Y-94901554D02*
X176422660Y-94711078D01*
X176422660Y-94711078D02*
X176460756Y-94558697D01*
X176460756Y-94558697D02*
X176498851Y-94482506D01*
X176498851Y-94482506D02*
X176536946Y-94444411D01*
X176536946Y-94444411D02*
X176613137Y-94406316D01*
X177336946Y-94749173D02*
X177260756Y-94711078D01*
X177260756Y-94711078D02*
X177222661Y-94672982D01*
X177222661Y-94672982D02*
X177184565Y-94596792D01*
X177184565Y-94596792D02*
X177184565Y-94558697D01*
X177184565Y-94558697D02*
X177222661Y-94482506D01*
X177222661Y-94482506D02*
X177260756Y-94444411D01*
X177260756Y-94444411D02*
X177336946Y-94406316D01*
X177336946Y-94406316D02*
X177489327Y-94406316D01*
X177489327Y-94406316D02*
X177565518Y-94444411D01*
X177565518Y-94444411D02*
X177603613Y-94482506D01*
X177603613Y-94482506D02*
X177641708Y-94558697D01*
X177641708Y-94558697D02*
X177641708Y-94596792D01*
X177641708Y-94596792D02*
X177603613Y-94672982D01*
X177603613Y-94672982D02*
X177565518Y-94711078D01*
X177565518Y-94711078D02*
X177489327Y-94749173D01*
X177489327Y-94749173D02*
X177336946Y-94749173D01*
X177336946Y-94749173D02*
X177260756Y-94787268D01*
X177260756Y-94787268D02*
X177222661Y-94825363D01*
X177222661Y-94825363D02*
X177184565Y-94901554D01*
X177184565Y-94901554D02*
X177184565Y-95053935D01*
X177184565Y-95053935D02*
X177222661Y-95130125D01*
X177222661Y-95130125D02*
X177260756Y-95168221D01*
X177260756Y-95168221D02*
X177336946Y-95206316D01*
X177336946Y-95206316D02*
X177489327Y-95206316D01*
X177489327Y-95206316D02*
X177565518Y-95168221D01*
X177565518Y-95168221D02*
X177603613Y-95130125D01*
X177603613Y-95130125D02*
X177641708Y-95053935D01*
X177641708Y-95053935D02*
X177641708Y-94901554D01*
X177641708Y-94901554D02*
X177603613Y-94825363D01*
X177603613Y-94825363D02*
X177565518Y-94787268D01*
X177565518Y-94787268D02*
X177489327Y-94749173D01*
X175660756Y-79966316D02*
X175660756Y-79166316D01*
X175660756Y-79166316D02*
X175965518Y-79166316D01*
X175965518Y-79166316D02*
X176041708Y-79204411D01*
X176041708Y-79204411D02*
X176079803Y-79242506D01*
X176079803Y-79242506D02*
X176117899Y-79318697D01*
X176117899Y-79318697D02*
X176117899Y-79432982D01*
X176117899Y-79432982D02*
X176079803Y-79509173D01*
X176079803Y-79509173D02*
X176041708Y-79547268D01*
X176041708Y-79547268D02*
X175965518Y-79585363D01*
X175965518Y-79585363D02*
X175660756Y-79585363D01*
X176613137Y-79166316D02*
X176689327Y-79166316D01*
X176689327Y-79166316D02*
X176765518Y-79204411D01*
X176765518Y-79204411D02*
X176803613Y-79242506D01*
X176803613Y-79242506D02*
X176841708Y-79318697D01*
X176841708Y-79318697D02*
X176879803Y-79471078D01*
X176879803Y-79471078D02*
X176879803Y-79661554D01*
X176879803Y-79661554D02*
X176841708Y-79813935D01*
X176841708Y-79813935D02*
X176803613Y-79890125D01*
X176803613Y-79890125D02*
X176765518Y-79928221D01*
X176765518Y-79928221D02*
X176689327Y-79966316D01*
X176689327Y-79966316D02*
X176613137Y-79966316D01*
X176613137Y-79966316D02*
X176536946Y-79928221D01*
X176536946Y-79928221D02*
X176498851Y-79890125D01*
X176498851Y-79890125D02*
X176460756Y-79813935D01*
X176460756Y-79813935D02*
X176422660Y-79661554D01*
X176422660Y-79661554D02*
X176422660Y-79471078D01*
X176422660Y-79471078D02*
X176460756Y-79318697D01*
X176460756Y-79318697D02*
X176498851Y-79242506D01*
X176498851Y-79242506D02*
X176536946Y-79204411D01*
X176536946Y-79204411D02*
X176613137Y-79166316D01*
X177184565Y-79242506D02*
X177222661Y-79204411D01*
X177222661Y-79204411D02*
X177298851Y-79166316D01*
X177298851Y-79166316D02*
X177489327Y-79166316D01*
X177489327Y-79166316D02*
X177565518Y-79204411D01*
X177565518Y-79204411D02*
X177603613Y-79242506D01*
X177603613Y-79242506D02*
X177641708Y-79318697D01*
X177641708Y-79318697D02*
X177641708Y-79394887D01*
X177641708Y-79394887D02*
X177603613Y-79509173D01*
X177603613Y-79509173D02*
X177146470Y-79966316D01*
X177146470Y-79966316D02*
X177641708Y-79966316D01*
X185260756Y-79966316D02*
X185260756Y-79166316D01*
X185260756Y-79166316D02*
X185565518Y-79166316D01*
X185565518Y-79166316D02*
X185641708Y-79204411D01*
X185641708Y-79204411D02*
X185679803Y-79242506D01*
X185679803Y-79242506D02*
X185717899Y-79318697D01*
X185717899Y-79318697D02*
X185717899Y-79432982D01*
X185717899Y-79432982D02*
X185679803Y-79509173D01*
X185679803Y-79509173D02*
X185641708Y-79547268D01*
X185641708Y-79547268D02*
X185565518Y-79585363D01*
X185565518Y-79585363D02*
X185260756Y-79585363D01*
X186022660Y-79242506D02*
X186060756Y-79204411D01*
X186060756Y-79204411D02*
X186136946Y-79166316D01*
X186136946Y-79166316D02*
X186327422Y-79166316D01*
X186327422Y-79166316D02*
X186403613Y-79204411D01*
X186403613Y-79204411D02*
X186441708Y-79242506D01*
X186441708Y-79242506D02*
X186479803Y-79318697D01*
X186479803Y-79318697D02*
X186479803Y-79394887D01*
X186479803Y-79394887D02*
X186441708Y-79509173D01*
X186441708Y-79509173D02*
X185984565Y-79966316D01*
X185984565Y-79966316D02*
X186479803Y-79966316D01*
X187241708Y-79966316D02*
X186784565Y-79966316D01*
X187013137Y-79966316D02*
X187013137Y-79166316D01*
X187013137Y-79166316D02*
X186936946Y-79280601D01*
X186936946Y-79280601D02*
X186860756Y-79356792D01*
X186860756Y-79356792D02*
X186784565Y-79394887D01*
%TO.C,G\u002A\u002A\u002A*%
G36*
X131593297Y-104768484D02*
G01*
X131645535Y-104794462D01*
X131708006Y-104850152D01*
X131748513Y-104926130D01*
X131766919Y-105022097D01*
X131768100Y-105062496D01*
X131759362Y-105161843D01*
X131732921Y-105241989D01*
X131685764Y-105309898D01*
X131643732Y-105349807D01*
X131559738Y-105405193D01*
X131474782Y-105430783D01*
X131387568Y-105426784D01*
X131315226Y-105402390D01*
X131247877Y-105358326D01*
X131192624Y-105297270D01*
X131160336Y-105234426D01*
X131152790Y-105192124D01*
X131150292Y-105134612D01*
X131152250Y-105089838D01*
X131173091Y-104991314D01*
X131214659Y-104906335D01*
X131272951Y-104837295D01*
X131343964Y-104786593D01*
X131423695Y-104756626D01*
X131508140Y-104749790D01*
X131593297Y-104768484D01*
G37*
G36*
X137505842Y-108933637D02*
G01*
X137567402Y-108970127D01*
X137605223Y-109024308D01*
X137619092Y-109095247D01*
X137608797Y-109182012D01*
X137581525Y-109265932D01*
X137533031Y-109366426D01*
X137473119Y-109459190D01*
X137405512Y-109540638D01*
X137333930Y-109607184D01*
X137262097Y-109655242D01*
X137193730Y-109681224D01*
X137147632Y-109684136D01*
X137110476Y-109674434D01*
X137068389Y-109656027D01*
X137067779Y-109655696D01*
X137021658Y-109614516D01*
X136993818Y-109554746D01*
X136987715Y-109483884D01*
X136987852Y-109482251D01*
X136997631Y-109431190D01*
X137020428Y-109387544D01*
X137061540Y-109343000D01*
X137094772Y-109314370D01*
X137173867Y-109232011D01*
X137230635Y-109131803D01*
X137250567Y-109076644D01*
X137285761Y-109002149D01*
X137336482Y-108950441D01*
X137399097Y-108923554D01*
X137469973Y-108923523D01*
X137505842Y-108933637D01*
G37*
G36*
X135599827Y-108681355D02*
G01*
X135637790Y-108700273D01*
X135686464Y-108741615D01*
X135741081Y-108805158D01*
X135797975Y-108884677D01*
X135853478Y-108973948D01*
X135903922Y-109066746D01*
X135945641Y-109156847D01*
X135974966Y-109238026D01*
X135987151Y-109293234D01*
X135982511Y-109362270D01*
X135953955Y-109421440D01*
X135907035Y-109466546D01*
X135847301Y-109493390D01*
X135780305Y-109497777D01*
X135732834Y-109485551D01*
X135695274Y-109466772D01*
X135666896Y-109441104D01*
X135642104Y-109401469D01*
X135615299Y-109340790D01*
X135612142Y-109332915D01*
X135558240Y-109213129D01*
X135496636Y-109109021D01*
X135445369Y-109038809D01*
X135401553Y-108981098D01*
X135374149Y-108938964D01*
X135359897Y-108905327D01*
X135355539Y-108873103D01*
X135356747Y-108846233D01*
X135375681Y-108774503D01*
X135414973Y-108719285D01*
X135469107Y-108683443D01*
X135532564Y-108669845D01*
X135599827Y-108681355D01*
G37*
G36*
X138040559Y-105896963D02*
G01*
X138117025Y-105926335D01*
X138179715Y-105977894D01*
X138224869Y-106049069D01*
X138248721Y-106137289D01*
X138251502Y-106181729D01*
X138239601Y-106283661D01*
X138205488Y-106372169D01*
X138152571Y-106444362D01*
X138084255Y-106497354D01*
X138003949Y-106528254D01*
X137915060Y-106534176D01*
X137850116Y-106522074D01*
X137772480Y-106484586D01*
X137706966Y-106423443D01*
X137659641Y-106344379D01*
X137658050Y-106340524D01*
X137637643Y-106252791D01*
X137642216Y-106191329D01*
X137910150Y-106191329D01*
X137912052Y-106212324D01*
X137916025Y-106217810D01*
X137937067Y-106229244D01*
X137950926Y-106214781D01*
X137951988Y-106208406D01*
X137941759Y-106187544D01*
X137931530Y-106184026D01*
X137910150Y-106191329D01*
X137642216Y-106191329D01*
X137643949Y-106168039D01*
X137644228Y-106164292D01*
X137675368Y-106080126D01*
X137728628Y-106005390D01*
X137801572Y-105945181D01*
X137861353Y-105915068D01*
X137954082Y-105892349D01*
X138040559Y-105896963D01*
G37*
G36*
X119444539Y-101895047D02*
G01*
X119562039Y-101929279D01*
X119676865Y-101984235D01*
X119781663Y-102056537D01*
X119853283Y-102124535D01*
X119920074Y-102198612D01*
X119961452Y-102165580D01*
X120049330Y-102109868D01*
X120155815Y-102064691D01*
X120270440Y-102033163D01*
X120382739Y-102018396D01*
X120452440Y-102019519D01*
X120583337Y-102045264D01*
X120713770Y-102096137D01*
X120836129Y-102168124D01*
X120942809Y-102257210D01*
X120980718Y-102298299D01*
X121056430Y-102402583D01*
X121107700Y-102510361D01*
X121135804Y-102626623D01*
X121142022Y-102756361D01*
X121130632Y-102883996D01*
X121096962Y-103035669D01*
X121038579Y-103194851D01*
X120958261Y-103357020D01*
X120858784Y-103517654D01*
X120742925Y-103672232D01*
X120613461Y-103816232D01*
X120485190Y-103935092D01*
X120287853Y-104081906D01*
X120072946Y-104204456D01*
X119878066Y-104288971D01*
X119787276Y-104321149D01*
X119715656Y-104339547D01*
X119655428Y-104343587D01*
X119598814Y-104332688D01*
X119538035Y-104306270D01*
X119465314Y-104263755D01*
X119455252Y-104257441D01*
X119266035Y-104123543D01*
X119096183Y-103973463D01*
X118948007Y-103809896D01*
X118823821Y-103635544D01*
X118725937Y-103453103D01*
X118688982Y-103363471D01*
X118623517Y-103160126D01*
X118581359Y-102965454D01*
X118562515Y-102781283D01*
X118562750Y-102772271D01*
X118935565Y-102772271D01*
X118949435Y-102904598D01*
X118978882Y-103042651D01*
X119022937Y-103182149D01*
X119080634Y-103318814D01*
X119151001Y-103448365D01*
X119233072Y-103566521D01*
X119255482Y-103593989D01*
X119312901Y-103657579D01*
X119378913Y-103723538D01*
X119448875Y-103787952D01*
X119518147Y-103846911D01*
X119582086Y-103896503D01*
X119636050Y-103932817D01*
X119675398Y-103951939D01*
X119682118Y-103953531D01*
X119705652Y-103949916D01*
X119746601Y-103937437D01*
X119782587Y-103924070D01*
X119979041Y-103829765D01*
X120161407Y-103710074D01*
X120327489Y-103567156D01*
X120475093Y-103403174D01*
X120602022Y-103220288D01*
X120706082Y-103020658D01*
X120710503Y-103010602D01*
X120738349Y-102940730D01*
X120754527Y-102880641D01*
X120762753Y-102814351D01*
X120764931Y-102776481D01*
X120766568Y-102711889D01*
X120763312Y-102667319D01*
X120753420Y-102632954D01*
X120735142Y-102598976D01*
X120732657Y-102595019D01*
X120661810Y-102506609D01*
X120580327Y-102444261D01*
X120491902Y-102407676D01*
X120400226Y-102396551D01*
X120308993Y-102410587D01*
X120221897Y-102449481D01*
X120142629Y-102512934D01*
X120074883Y-102600644D01*
X120047751Y-102650833D01*
X120003142Y-102721140D01*
X119948695Y-102763845D01*
X119882227Y-102780354D01*
X119848324Y-102779659D01*
X119783330Y-102765458D01*
X119734962Y-102733435D01*
X119699856Y-102679916D01*
X119674646Y-102601234D01*
X119671448Y-102586737D01*
X119636537Y-102478664D01*
X119582627Y-102389765D01*
X119512097Y-102322446D01*
X119427329Y-102279112D01*
X119351325Y-102263371D01*
X119256138Y-102269366D01*
X119163391Y-102301681D01*
X119079496Y-102356889D01*
X119010867Y-102431566D01*
X118997110Y-102452447D01*
X118958434Y-102541916D01*
X118938242Y-102649950D01*
X118935565Y-102772271D01*
X118562750Y-102772271D01*
X118566779Y-102617451D01*
X118566988Y-102609440D01*
X118594784Y-102451753D01*
X118645908Y-102310048D01*
X118685869Y-102236519D01*
X118766153Y-102134288D01*
X118869030Y-102045599D01*
X118989002Y-101973445D01*
X119120566Y-101920820D01*
X119258227Y-101890718D01*
X119331723Y-101884920D01*
X119444539Y-101895047D01*
G37*
G36*
X125765061Y-90593124D02*
G01*
X126315574Y-90636618D01*
X126865890Y-90709711D01*
X127415281Y-90812403D01*
X127963020Y-90944695D01*
X128013582Y-90958429D01*
X128548941Y-91120543D01*
X129075688Y-91310679D01*
X129592091Y-91527960D01*
X130096417Y-91771506D01*
X130586937Y-92040440D01*
X131061915Y-92333884D01*
X131519622Y-92650960D01*
X131849491Y-92902924D01*
X132057329Y-93071630D01*
X132247528Y-93233352D01*
X132427387Y-93394783D01*
X132604207Y-93562611D01*
X132785288Y-93743528D01*
X132926693Y-93890155D01*
X133021922Y-93992428D01*
X133097283Y-94078802D01*
X133155561Y-94153061D01*
X133199536Y-94218986D01*
X133231991Y-94280364D01*
X133253577Y-94334628D01*
X133277817Y-94445544D01*
X133275493Y-94552723D01*
X133248265Y-94652138D01*
X133197797Y-94739765D01*
X133125746Y-94811579D01*
X133035690Y-94862782D01*
X132982385Y-94880727D01*
X132927013Y-94889850D01*
X132857980Y-94891709D01*
X132826475Y-94890860D01*
X132753189Y-94885405D01*
X132681684Y-94873443D01*
X132607360Y-94853317D01*
X132525614Y-94823363D01*
X132431848Y-94781925D01*
X132321458Y-94727341D01*
X132208334Y-94667879D01*
X131734142Y-94429703D01*
X131251607Y-94218299D01*
X130762029Y-94033855D01*
X130266716Y-93876556D01*
X129766968Y-93746591D01*
X129264090Y-93644143D01*
X128759385Y-93569401D01*
X128254157Y-93522550D01*
X127749709Y-93503778D01*
X127247345Y-93513269D01*
X126748367Y-93551212D01*
X126254081Y-93617792D01*
X125765789Y-93713196D01*
X125677398Y-93733738D01*
X125462854Y-93787096D01*
X125267274Y-93840962D01*
X125079753Y-93898719D01*
X124889387Y-93963753D01*
X124685272Y-94039447D01*
X124655680Y-94050817D01*
X124253628Y-94221605D01*
X123859823Y-94420105D01*
X123476062Y-94644724D01*
X123104150Y-94893869D01*
X122745884Y-95165945D01*
X122403069Y-95459361D01*
X122077502Y-95772522D01*
X121770986Y-96103835D01*
X121485322Y-96451708D01*
X121222309Y-96814545D01*
X120983750Y-97190755D01*
X120860331Y-97408852D01*
X120798065Y-97529981D01*
X120730678Y-97671794D01*
X120661503Y-97826427D01*
X120593879Y-97986022D01*
X120531136Y-98142715D01*
X120476613Y-98288647D01*
X120435255Y-98410821D01*
X120363699Y-98655050D01*
X120307820Y-98886665D01*
X120265293Y-99117053D01*
X120233789Y-99357600D01*
X120226074Y-99434146D01*
X120217550Y-99528351D01*
X120210684Y-99612227D01*
X120205786Y-99681267D01*
X120203168Y-99730958D01*
X120203136Y-99756792D01*
X120203746Y-99759311D01*
X120219737Y-99757949D01*
X120259990Y-99748903D01*
X120320089Y-99733328D01*
X120395620Y-99712380D01*
X120482169Y-99687213D01*
X120501692Y-99681392D01*
X120996188Y-99548411D01*
X121496310Y-99443635D01*
X122000359Y-99367075D01*
X122506640Y-99318745D01*
X123013453Y-99298658D01*
X123519104Y-99306823D01*
X124021896Y-99343256D01*
X124520130Y-99407966D01*
X125012113Y-99500967D01*
X125496144Y-99622272D01*
X125574404Y-99644795D01*
X125964991Y-99770836D01*
X126357354Y-99919755D01*
X126743202Y-100088026D01*
X127114244Y-100272125D01*
X127333995Y-100393113D01*
X127520549Y-100500106D01*
X127685364Y-100367174D01*
X127893680Y-100211767D01*
X128101437Y-100083099D01*
X128313957Y-99978485D01*
X128536561Y-99895243D01*
X128726728Y-99841930D01*
X128980331Y-99795092D01*
X129235534Y-99776737D01*
X129489788Y-99786138D01*
X129740544Y-99822570D01*
X129985251Y-99885304D01*
X130221362Y-99973618D01*
X130446324Y-100086782D01*
X130657589Y-100224071D01*
X130852608Y-100384761D01*
X130942659Y-100473061D01*
X131073654Y-100626803D01*
X131193178Y-100801831D01*
X131296457Y-100990180D01*
X131378715Y-101183888D01*
X131392275Y-101222728D01*
X131413076Y-101283404D01*
X131430956Y-101333320D01*
X131443419Y-101365627D01*
X131447221Y-101373653D01*
X131464470Y-101376697D01*
X131505477Y-101376147D01*
X131564245Y-101372279D01*
X131634780Y-101365370D01*
X131640300Y-101364746D01*
X131787155Y-101350486D01*
X131953244Y-101338591D01*
X132127851Y-101329616D01*
X132300260Y-101324116D01*
X132453226Y-101322619D01*
X132543751Y-101324802D01*
X132657407Y-101330426D01*
X132787645Y-101338918D01*
X132927920Y-101349705D01*
X133071682Y-101362214D01*
X133212382Y-101375871D01*
X133343473Y-101390102D01*
X133458409Y-101404335D01*
X133550639Y-101417996D01*
X133559213Y-101419455D01*
X133973998Y-101503363D01*
X134382001Y-101609851D01*
X134779273Y-101737568D01*
X135161867Y-101885163D01*
X135525833Y-102051284D01*
X135756493Y-102171828D01*
X135918406Y-102261137D01*
X136085517Y-102126174D01*
X136294961Y-101975833D01*
X136517084Y-101852489D01*
X136750671Y-101756543D01*
X136994509Y-101688398D01*
X137247381Y-101648454D01*
X137508074Y-101637114D01*
X137561156Y-101638317D01*
X137801640Y-101661102D01*
X138035841Y-101712230D01*
X138261724Y-101790344D01*
X138477251Y-101894081D01*
X138680389Y-102022083D01*
X138869103Y-102172992D01*
X139041357Y-102345445D01*
X139195116Y-102538086D01*
X139328345Y-102749553D01*
X139383691Y-102855877D01*
X139479426Y-103085255D01*
X139545676Y-103319204D01*
X139582396Y-103556512D01*
X139589543Y-103795966D01*
X139567072Y-104036354D01*
X139514942Y-104276465D01*
X139442205Y-104492401D01*
X139332323Y-104732872D01*
X139199015Y-104956030D01*
X139040978Y-105163706D01*
X138856909Y-105357726D01*
X138767435Y-105439153D01*
X138623242Y-105564859D01*
X138668428Y-105732017D01*
X138750244Y-106079262D01*
X138812152Y-106439090D01*
X138853748Y-106805619D01*
X138874628Y-107172965D01*
X138874387Y-107535248D01*
X138852620Y-107886585D01*
X138830071Y-108082298D01*
X138801019Y-108295499D01*
X138861684Y-108386269D01*
X138999254Y-108612247D01*
X139109185Y-108836659D01*
X139191329Y-109058561D01*
X139245542Y-109277009D01*
X139271679Y-109491057D01*
X139269592Y-109699760D01*
X139239135Y-109902174D01*
X139180163Y-110097352D01*
X139140503Y-110190728D01*
X139053043Y-110347936D01*
X138946788Y-110487997D01*
X138824733Y-110608222D01*
X138689877Y-110705921D01*
X138545219Y-110778402D01*
X138450543Y-110809868D01*
X138398314Y-110826107D01*
X138369675Y-110841794D01*
X138358514Y-110860609D01*
X138357781Y-110865709D01*
X138351115Y-110895696D01*
X138336435Y-110942844D01*
X138318554Y-110992558D01*
X138282097Y-111087734D01*
X138339779Y-111137262D01*
X138440552Y-111230260D01*
X138551967Y-111344487D01*
X138669842Y-111475084D01*
X138789994Y-111617191D01*
X138908239Y-111765950D01*
X139020398Y-111916502D01*
X139065938Y-111980906D01*
X139205507Y-112193574D01*
X139320768Y-112396051D01*
X139413636Y-112592732D01*
X139486024Y-112788011D01*
X139539847Y-112986284D01*
X139568427Y-113134903D01*
X139582365Y-113266210D01*
X139586154Y-113416632D01*
X139580328Y-113577245D01*
X139565421Y-113739126D01*
X139541970Y-113893350D01*
X139515939Y-114010908D01*
X139433047Y-114269326D01*
X139323532Y-114514796D01*
X139188262Y-114746384D01*
X139028105Y-114963166D01*
X138843930Y-115164213D01*
X138636606Y-115348595D01*
X138407001Y-115515386D01*
X138155982Y-115663658D01*
X137884420Y-115792482D01*
X137826607Y-115816278D01*
X137518662Y-115925424D01*
X137208055Y-116006291D01*
X136892340Y-116059232D01*
X136569071Y-116084598D01*
X136235804Y-116082742D01*
X136057486Y-116071114D01*
X135804950Y-116043504D01*
X135573107Y-116004430D01*
X135354241Y-115952083D01*
X135140633Y-115884654D01*
X134951977Y-115811859D01*
X134883654Y-115783825D01*
X134835746Y-115766069D01*
X134801099Y-115757027D01*
X134772559Y-115755138D01*
X134742970Y-115758838D01*
X134725286Y-115762351D01*
X134681135Y-115769025D01*
X134616224Y-115775720D01*
X134539785Y-115781597D01*
X134471502Y-115785377D01*
X134279683Y-115784268D01*
X134089388Y-115764869D01*
X133903625Y-115728586D01*
X133725398Y-115676827D01*
X133557713Y-115610995D01*
X133403576Y-115532496D01*
X133265994Y-115442738D01*
X133147971Y-115343125D01*
X133052514Y-115235063D01*
X132982628Y-115119959D01*
X132965906Y-115081223D01*
X132926149Y-114943247D01*
X132916382Y-114817327D01*
X133283137Y-114817327D01*
X133289008Y-114866721D01*
X133310545Y-114928438D01*
X133343148Y-114992674D01*
X133382214Y-115049625D01*
X133402926Y-115072496D01*
X133478767Y-115134585D01*
X133577492Y-115197231D01*
X133692245Y-115257037D01*
X133816164Y-115310609D01*
X133942392Y-115354552D01*
X134011346Y-115373643D01*
X134089374Y-115388164D01*
X134187950Y-115399330D01*
X134297762Y-115406751D01*
X134409498Y-115410035D01*
X134513848Y-115408791D01*
X134601500Y-115402628D01*
X134625284Y-115399430D01*
X134713362Y-115383246D01*
X134791911Y-115364389D01*
X134855712Y-115344463D01*
X134899545Y-115325070D01*
X134917477Y-115309674D01*
X134921594Y-115273850D01*
X134911323Y-115219569D01*
X134888244Y-115153776D01*
X134875373Y-115124927D01*
X134805348Y-115011985D01*
X134708573Y-114911051D01*
X134585992Y-114822581D01*
X134438550Y-114747030D01*
X134267188Y-114684855D01*
X134072853Y-114636512D01*
X133856488Y-114602457D01*
X133777063Y-114594121D01*
X133694008Y-114587010D01*
X133633658Y-114583742D01*
X133588929Y-114584574D01*
X133552734Y-114589766D01*
X133517990Y-114599576D01*
X133505109Y-114604059D01*
X133420506Y-114643770D01*
X133352513Y-114694498D01*
X133305459Y-114752084D01*
X133283671Y-114812370D01*
X133283137Y-114817327D01*
X132916382Y-114817327D01*
X132915822Y-114810107D01*
X132919482Y-114785511D01*
X132934809Y-114682538D01*
X132983000Y-114561277D01*
X133060279Y-114447060D01*
X133064118Y-114442479D01*
X133078110Y-114423411D01*
X133088409Y-114400825D01*
X133096147Y-114369023D01*
X133102457Y-114322306D01*
X133108475Y-114254979D01*
X133110869Y-114222905D01*
X133468236Y-114222905D01*
X133587239Y-114210775D01*
X133675797Y-114208171D01*
X133786346Y-114215031D01*
X133912794Y-114230262D01*
X134049042Y-114252767D01*
X134188997Y-114281456D01*
X134326564Y-114315235D01*
X134455646Y-114353009D01*
X134537945Y-114381337D01*
X134715779Y-114461086D01*
X134873737Y-114560522D01*
X135010210Y-114678171D01*
X135123593Y-114812556D01*
X135212278Y-114962204D01*
X135240467Y-115025979D01*
X135265946Y-115092704D01*
X135280961Y-115144516D01*
X135287720Y-115193701D01*
X135288428Y-115252546D01*
X135287308Y-115286792D01*
X135281611Y-115368221D01*
X135271194Y-115426977D01*
X135254791Y-115470198D01*
X135254750Y-115470276D01*
X135227381Y-115522459D01*
X135376380Y-115567139D01*
X135517392Y-115607159D01*
X135651792Y-115640998D01*
X135769996Y-115666275D01*
X135791357Y-115670184D01*
X135883787Y-115683665D01*
X135996603Y-115695750D01*
X136120192Y-115705769D01*
X136244942Y-115713055D01*
X136361240Y-115716938D01*
X136459476Y-115716750D01*
X136460474Y-115716722D01*
X136765049Y-115695955D01*
X137058581Y-115652321D01*
X137339665Y-115586708D01*
X137606897Y-115500003D01*
X137858871Y-115393094D01*
X138094181Y-115266869D01*
X138311423Y-115122214D01*
X138509190Y-114960018D01*
X138686078Y-114781169D01*
X138840680Y-114586554D01*
X138971594Y-114377062D01*
X139077411Y-114153578D01*
X139120573Y-114036559D01*
X139181515Y-113809647D01*
X139212496Y-113582120D01*
X139213542Y-113354350D01*
X139184680Y-113126713D01*
X139125939Y-112899579D01*
X139037346Y-112673323D01*
X139017162Y-112630511D01*
X138940218Y-112485985D01*
X138844113Y-112328539D01*
X138733170Y-112163937D01*
X138611706Y-111997944D01*
X138484043Y-111836324D01*
X138354496Y-111684843D01*
X138227388Y-111549264D01*
X138152392Y-111476364D01*
X138116320Y-111442759D01*
X138017865Y-111603714D01*
X137940359Y-111722909D01*
X137866586Y-111821554D01*
X137798449Y-111897396D01*
X137737848Y-111948184D01*
X137715919Y-111961094D01*
X137630842Y-111988070D01*
X137540910Y-111989304D01*
X137453920Y-111966128D01*
X137377670Y-111919874D01*
X137356026Y-111899600D01*
X137309672Y-111833793D01*
X137269348Y-111741009D01*
X137235474Y-111623748D01*
X137208471Y-111484510D01*
X137188761Y-111325795D01*
X137176767Y-111150104D01*
X137172907Y-110959935D01*
X137173704Y-110910761D01*
X137546291Y-110910761D01*
X137546561Y-111004880D01*
X137549630Y-111102964D01*
X137555055Y-111200672D01*
X137562391Y-111293667D01*
X137571193Y-111377607D01*
X137581017Y-111448155D01*
X137591421Y-111500971D01*
X137601957Y-111531715D01*
X137610453Y-111537378D01*
X137623569Y-111522106D01*
X137648135Y-111486106D01*
X137680685Y-111434689D01*
X137717756Y-111373167D01*
X137719327Y-111370498D01*
X137765271Y-111289474D01*
X137812837Y-111200612D01*
X137858702Y-111110610D01*
X137899544Y-111026163D01*
X137932036Y-110953962D01*
X137952856Y-110900705D01*
X137953410Y-110899029D01*
X137965639Y-110861675D01*
X137792053Y-110828438D01*
X137720053Y-110814132D01*
X137656093Y-110800476D01*
X137607593Y-110789110D01*
X137583377Y-110782231D01*
X137548286Y-110769260D01*
X137546291Y-110910761D01*
X137173704Y-110910761D01*
X137175083Y-110825652D01*
X137177772Y-110736844D01*
X137180950Y-110631857D01*
X137130215Y-110609269D01*
X137096962Y-110593536D01*
X137071201Y-110581630D01*
X137051674Y-110576516D01*
X137037125Y-110581157D01*
X137026295Y-110598521D01*
X137017930Y-110631568D01*
X137010772Y-110683266D01*
X137003563Y-110756579D01*
X136995047Y-110854469D01*
X136986917Y-110947236D01*
X136972075Y-111101449D01*
X136956688Y-111232228D01*
X136939320Y-111346130D01*
X136918538Y-111449713D01*
X136892904Y-111549536D01*
X136860985Y-111652154D01*
X136821344Y-111764128D01*
X136789992Y-111847022D01*
X136672809Y-112110114D01*
X136530024Y-112358650D01*
X136363159Y-112590910D01*
X136173730Y-112805178D01*
X135963258Y-112999733D01*
X135733262Y-113172861D01*
X135485262Y-113322841D01*
X135484645Y-113323172D01*
X135362060Y-113383621D01*
X135218911Y-113445277D01*
X135064274Y-113504674D01*
X134907225Y-113558341D01*
X134756839Y-113602809D01*
X134744361Y-113606131D01*
X134630546Y-113633275D01*
X134494297Y-113661109D01*
X134343124Y-113688388D01*
X134184537Y-113713869D01*
X134026045Y-113736310D01*
X133875158Y-113754466D01*
X133806295Y-113761421D01*
X133726636Y-113769066D01*
X133671477Y-113775549D01*
X133635442Y-113782478D01*
X133613152Y-113791463D01*
X133599232Y-113804110D01*
X133588302Y-113822028D01*
X133585420Y-113827494D01*
X133554063Y-113898311D01*
X133523338Y-113986951D01*
X133497164Y-114081411D01*
X133485926Y-114132516D01*
X133468236Y-114222905D01*
X133110869Y-114222905D01*
X133112711Y-114198235D01*
X133113238Y-114191847D01*
X133120655Y-114101863D01*
X133129989Y-114025015D01*
X133142623Y-113957212D01*
X133160471Y-113887976D01*
X133182376Y-113816386D01*
X133184749Y-113806860D01*
X133182872Y-113799090D01*
X133173439Y-113792432D01*
X133153146Y-113786243D01*
X133118687Y-113779882D01*
X133066755Y-113772705D01*
X132994042Y-113764070D01*
X132897246Y-113753333D01*
X132808351Y-113743678D01*
X132633268Y-113723239D01*
X132480557Y-113701830D01*
X132342588Y-113677938D01*
X132211733Y-113650044D01*
X132080363Y-113616636D01*
X131940848Y-113576198D01*
X131896788Y-113562632D01*
X131835857Y-113544210D01*
X131786672Y-113530379D01*
X131755514Y-113522843D01*
X131747830Y-113522182D01*
X131751852Y-113536704D01*
X131766440Y-113572210D01*
X131789040Y-113622700D01*
X131806585Y-113660222D01*
X131853278Y-113764224D01*
X131904911Y-113888817D01*
X131958350Y-114025689D01*
X132010460Y-114166533D01*
X132058109Y-114303038D01*
X132098163Y-114426895D01*
X132107963Y-114459439D01*
X132141238Y-114564109D01*
X132173292Y-114646349D01*
X132207177Y-114713426D01*
X132230160Y-114750161D01*
X132268675Y-114811431D01*
X132311320Y-114885600D01*
X132349849Y-114958235D01*
X132355456Y-114969513D01*
X132407987Y-115104214D01*
X132432845Y-115234554D01*
X132431363Y-115358050D01*
X132404873Y-115472224D01*
X132354709Y-115574593D01*
X132282202Y-115662676D01*
X132188687Y-115733992D01*
X132075494Y-115786061D01*
X131943958Y-115816401D01*
X131898006Y-115821131D01*
X131818146Y-115824421D01*
X131743232Y-115820915D01*
X131663132Y-115809515D01*
X131567720Y-115789115D01*
X131538331Y-115781998D01*
X131421149Y-115746904D01*
X131291588Y-115697675D01*
X131160628Y-115639013D01*
X131039244Y-115575621D01*
X130993620Y-115548632D01*
X130879703Y-115478295D01*
X130640604Y-115478337D01*
X130149279Y-115468723D01*
X129643895Y-115440282D01*
X129133031Y-115393883D01*
X128625273Y-115330389D01*
X128129201Y-115250666D01*
X127847642Y-115196808D01*
X127297970Y-115071842D01*
X126755159Y-114922232D01*
X126224579Y-114749574D01*
X125771827Y-114579748D01*
X125655562Y-114532349D01*
X125535678Y-114481538D01*
X125409397Y-114426014D01*
X125273947Y-114364476D01*
X125126555Y-114295625D01*
X124964445Y-114218161D01*
X124784842Y-114130784D01*
X124584973Y-114032195D01*
X124362064Y-113921093D01*
X124305288Y-113892654D01*
X124067118Y-113773597D01*
X123852975Y-113667365D01*
X123660332Y-113572809D01*
X123486663Y-113488780D01*
X123329440Y-113414130D01*
X123186136Y-113347711D01*
X123054225Y-113288374D01*
X122931179Y-113234970D01*
X122814473Y-113186350D01*
X122701578Y-113141368D01*
X122589967Y-113098872D01*
X122477115Y-113057717D01*
X122436814Y-113043402D01*
X122282796Y-112990430D01*
X122133248Y-112942127D01*
X121985408Y-112897970D01*
X121836517Y-112857436D01*
X121683813Y-112820005D01*
X121524538Y-112785152D01*
X121355931Y-112752356D01*
X121175229Y-112721095D01*
X120979675Y-112690846D01*
X120766506Y-112661088D01*
X120532964Y-112631298D01*
X120276286Y-112600954D01*
X119993713Y-112569533D01*
X119851590Y-112554288D01*
X119576046Y-112524699D01*
X119327867Y-112497236D01*
X119104522Y-112471443D01*
X118903482Y-112446863D01*
X118722214Y-112423039D01*
X118558190Y-112399513D01*
X118408880Y-112375829D01*
X118271753Y-112351530D01*
X118144278Y-112326159D01*
X118023926Y-112299258D01*
X117908168Y-112270371D01*
X117794472Y-112239040D01*
X117680308Y-112204809D01*
X117563146Y-112167221D01*
X117440456Y-112125819D01*
X117397891Y-112111090D01*
X116983320Y-111952572D01*
X116579117Y-111768683D01*
X116181389Y-111557580D01*
X115980261Y-111439132D01*
X115679494Y-111256110D01*
X115306345Y-111223597D01*
X114920876Y-111181213D01*
X114553916Y-111122101D01*
X114197958Y-111044487D01*
X113845498Y-110946597D01*
X113489032Y-110826655D01*
X113263265Y-110740657D01*
X113039193Y-110644309D01*
X112808517Y-110531291D01*
X112577203Y-110405192D01*
X112351221Y-110269605D01*
X112136536Y-110128117D01*
X111939118Y-109984323D01*
X111764931Y-109841812D01*
X111755050Y-109833115D01*
X111687071Y-109777866D01*
X111607676Y-109720590D01*
X111530932Y-109671259D01*
X111508927Y-109658612D01*
X111380189Y-109581458D01*
X111250621Y-109492803D01*
X111124796Y-109396566D01*
X111007288Y-109296665D01*
X110902672Y-109197017D01*
X110815520Y-109101540D01*
X110750406Y-109014151D01*
X110743306Y-109002781D01*
X110712500Y-108940764D01*
X110685634Y-108866446D01*
X110665781Y-108790641D01*
X110657024Y-108731068D01*
X111029439Y-108731068D01*
X111038091Y-108757626D01*
X111064424Y-108799943D01*
X111104545Y-108852922D01*
X111154563Y-108911463D01*
X111210588Y-108970469D01*
X111217194Y-108977010D01*
X111259240Y-109017499D01*
X111293038Y-109048456D01*
X111313085Y-109064900D01*
X111315840Y-109066305D01*
X111320217Y-109052551D01*
X111326164Y-109014356D01*
X111331833Y-108966744D01*
X111707122Y-108966744D01*
X111715406Y-109099139D01*
X111745194Y-109216544D01*
X111797474Y-109322854D01*
X111873149Y-109421875D01*
X111965597Y-109514277D01*
X112081794Y-109614931D01*
X112217615Y-109720987D01*
X112368934Y-109829594D01*
X112531625Y-109937899D01*
X112701562Y-110043049D01*
X112874620Y-110142195D01*
X113044274Y-110231288D01*
X113293886Y-110346632D01*
X113565558Y-110455194D01*
X113851677Y-110554634D01*
X114144630Y-110642612D01*
X114436800Y-110716790D01*
X114720578Y-110774829D01*
X114910635Y-110804666D01*
X114984350Y-110814993D01*
X115051099Y-110825016D01*
X115102935Y-110833501D01*
X115129693Y-110838666D01*
X115173965Y-110849059D01*
X115118609Y-110795557D01*
X114993770Y-110669227D01*
X114877227Y-110540244D01*
X114772910Y-110413420D01*
X114684746Y-110293565D01*
X114616666Y-110185488D01*
X114609107Y-110171838D01*
X114580592Y-110095872D01*
X114576426Y-110023728D01*
X114594200Y-109959974D01*
X114631508Y-109909175D01*
X114685941Y-109875902D01*
X114755091Y-109864719D01*
X114770553Y-109865542D01*
X114821109Y-109877129D01*
X114866560Y-109905011D01*
X114911677Y-109953227D01*
X114961235Y-110025815D01*
X114962632Y-110028073D01*
X115020442Y-110112752D01*
X115096123Y-110210149D01*
X115184244Y-110314079D01*
X115279374Y-110418355D01*
X115376083Y-110516791D01*
X115462760Y-110597747D01*
X115703711Y-110796083D01*
X115970434Y-110987555D01*
X116259084Y-111170127D01*
X116565820Y-111341762D01*
X116886796Y-111500422D01*
X117218172Y-111644069D01*
X117556100Y-111770666D01*
X117856046Y-111866407D01*
X117956195Y-111895059D01*
X118052911Y-111921118D01*
X118148865Y-111945011D01*
X118246728Y-111967161D01*
X118349170Y-111987990D01*
X118458861Y-112007924D01*
X118578472Y-112027384D01*
X118710673Y-112046796D01*
X118858136Y-112066583D01*
X119023530Y-112087167D01*
X119209526Y-112108974D01*
X119418795Y-112132425D01*
X119654005Y-112157946D01*
X119775863Y-112170944D01*
X120080692Y-112203930D01*
X120358157Y-112235370D01*
X120610831Y-112265743D01*
X120841290Y-112295524D01*
X121052104Y-112325192D01*
X121245849Y-112355224D01*
X121425097Y-112386098D01*
X121592423Y-112418290D01*
X121750400Y-112452279D01*
X121901602Y-112488541D01*
X122048602Y-112527555D01*
X122193974Y-112569798D01*
X122340291Y-112615746D01*
X122490127Y-112665878D01*
X122543525Y-112684378D01*
X122673348Y-112730732D01*
X122801748Y-112778806D01*
X122931420Y-112829817D01*
X123065056Y-112884979D01*
X123205356Y-112945509D01*
X123355011Y-113012623D01*
X123516717Y-113087534D01*
X123693170Y-113171459D01*
X123887064Y-113265612D01*
X124101094Y-113371211D01*
X124337954Y-113489469D01*
X124419797Y-113530578D01*
X124543732Y-113592839D01*
X124665819Y-113654036D01*
X124781926Y-113712110D01*
X124887920Y-113764997D01*
X124979668Y-113810635D01*
X125053036Y-113846963D01*
X125103892Y-113871916D01*
X125105239Y-113872571D01*
X125593607Y-114097586D01*
X126079360Y-114296430D01*
X126568198Y-114471021D01*
X127065824Y-114623279D01*
X127577938Y-114755120D01*
X128001903Y-114847184D01*
X128082526Y-114863142D01*
X128158902Y-114877745D01*
X128235740Y-114891791D01*
X128317752Y-114906082D01*
X128409647Y-114921413D01*
X128516136Y-114938585D01*
X128641928Y-114958396D01*
X128791736Y-114981646D01*
X128825528Y-114986861D01*
X128861978Y-114991301D01*
X128923721Y-114997473D01*
X129007005Y-115005088D01*
X129108072Y-115013854D01*
X129223171Y-115023482D01*
X129348547Y-115033682D01*
X129480447Y-115044165D01*
X129615118Y-115054641D01*
X129748805Y-115064819D01*
X129877753Y-115074410D01*
X129998210Y-115083125D01*
X130106423Y-115090673D01*
X130198635Y-115096765D01*
X130271095Y-115101110D01*
X130320049Y-115103419D01*
X130338365Y-115103667D01*
X130408305Y-115101408D01*
X130321993Y-114996989D01*
X130238936Y-114878173D01*
X130180711Y-114754890D01*
X130147269Y-114630319D01*
X130138871Y-114512084D01*
X130511892Y-114512084D01*
X130521656Y-114586654D01*
X130534071Y-114625746D01*
X130568073Y-114693169D01*
X130624537Y-114768685D01*
X130704779Y-114853769D01*
X130810114Y-114949897D01*
X130863064Y-114994673D01*
X131005784Y-115105016D01*
X131151487Y-115202574D01*
X131296974Y-115286001D01*
X131439044Y-115353948D01*
X131574500Y-115405074D01*
X131700141Y-115438028D01*
X131812768Y-115451466D01*
X131909182Y-115444040D01*
X131923112Y-115440768D01*
X131991182Y-115414864D01*
X132034880Y-115377314D01*
X132057401Y-115329575D01*
X132064185Y-115284981D01*
X132058407Y-115236571D01*
X132038397Y-115178253D01*
X132002482Y-115103932D01*
X131988207Y-115077331D01*
X131890999Y-114927042D01*
X131769448Y-114784833D01*
X131629113Y-114656282D01*
X131475552Y-114546969D01*
X131436858Y-114523936D01*
X131317093Y-114460751D01*
X131206123Y-114415337D01*
X131092758Y-114384187D01*
X130965806Y-114363794D01*
X130906183Y-114357634D01*
X130823734Y-114350695D01*
X130764142Y-114347485D01*
X130720458Y-114348295D01*
X130685731Y-114353420D01*
X130653010Y-114363153D01*
X130637461Y-114368968D01*
X130568906Y-114405447D01*
X130527347Y-114452416D01*
X130511892Y-114512084D01*
X130138871Y-114512084D01*
X130138555Y-114507640D01*
X130142340Y-114479753D01*
X130154518Y-114390030D01*
X130195106Y-114280667D01*
X130260267Y-114182730D01*
X130336540Y-114109581D01*
X130443564Y-114044222D01*
X130569332Y-113999715D01*
X130711149Y-113975914D01*
X130866322Y-113972677D01*
X131032157Y-113989857D01*
X131205962Y-114027310D01*
X131385044Y-114084890D01*
X131566709Y-114162453D01*
X131597178Y-114177377D01*
X131607246Y-114173430D01*
X131603915Y-114146312D01*
X131588628Y-114098932D01*
X131562827Y-114034195D01*
X131527956Y-113955011D01*
X131485457Y-113864286D01*
X131436773Y-113764929D01*
X131383346Y-113659847D01*
X131326619Y-113551948D01*
X131268036Y-113444139D01*
X131209038Y-113339327D01*
X131151068Y-113240421D01*
X131095570Y-113150328D01*
X131061629Y-113098058D01*
X130815420Y-112753242D01*
X130549259Y-112427910D01*
X130265057Y-112124168D01*
X129964723Y-111844118D01*
X129790892Y-111698976D01*
X129517226Y-111492356D01*
X129223819Y-111294443D01*
X128914844Y-111107217D01*
X128594477Y-110932657D01*
X128266892Y-110772744D01*
X127936266Y-110629460D01*
X127606774Y-110504783D01*
X127282589Y-110400695D01*
X126967888Y-110319176D01*
X126815197Y-110287460D01*
X126745946Y-110272490D01*
X126683477Y-110255666D01*
X126636558Y-110239510D01*
X126619392Y-110231108D01*
X126576193Y-110187315D01*
X126551882Y-110127796D01*
X126547976Y-110061294D01*
X126565995Y-109996548D01*
X126575641Y-109979184D01*
X126604145Y-109945210D01*
X126641907Y-109921954D01*
X126692088Y-109909318D01*
X126757848Y-109907201D01*
X126842350Y-109915503D01*
X126948753Y-109934126D01*
X127080220Y-109962968D01*
X127081301Y-109963221D01*
X127159435Y-109981743D01*
X127231249Y-109999199D01*
X127289506Y-110013798D01*
X127326968Y-110023755D01*
X127330697Y-110024843D01*
X127363603Y-110033001D01*
X127375141Y-110028568D01*
X127372620Y-110011099D01*
X127351364Y-109960637D01*
X127312679Y-109892406D01*
X127259627Y-109810557D01*
X127195268Y-109719240D01*
X127122667Y-109622606D01*
X127044884Y-109524807D01*
X126964982Y-109429990D01*
X126886022Y-109342309D01*
X126856001Y-109310795D01*
X126817653Y-109269714D01*
X126796559Y-109239927D01*
X126788381Y-109211887D01*
X126788779Y-109176053D01*
X126789696Y-109164939D01*
X126806822Y-109085924D01*
X126842931Y-109029454D01*
X126898931Y-108994119D01*
X126900429Y-108993556D01*
X126947648Y-108979822D01*
X126990333Y-108977985D01*
X127033034Y-108990231D01*
X127080300Y-109018746D01*
X127136678Y-109065715D01*
X127206717Y-109133326D01*
X127220841Y-109147570D01*
X127356370Y-109299253D01*
X127487155Y-109473137D01*
X127608166Y-109661420D01*
X127714374Y-109856297D01*
X127797849Y-110042625D01*
X127858290Y-110194907D01*
X127942512Y-110227394D01*
X127992796Y-110247311D01*
X128060282Y-110274744D01*
X128134570Y-110305442D01*
X128180624Y-110324732D01*
X128243280Y-110350867D01*
X128295442Y-110372120D01*
X128331114Y-110386081D01*
X128344002Y-110390413D01*
X128341583Y-110378623D01*
X128327272Y-110346282D01*
X128303706Y-110299090D01*
X128287703Y-110268771D01*
X128184216Y-110048555D01*
X128098722Y-109809049D01*
X128032287Y-109555741D01*
X127985981Y-109294120D01*
X127960872Y-109029673D01*
X127960562Y-109001127D01*
X128329198Y-109001127D01*
X128332029Y-109056669D01*
X128337682Y-109113326D01*
X128340229Y-109133956D01*
X128383205Y-109399570D01*
X128442183Y-109643165D01*
X128518948Y-109869143D01*
X128615285Y-110081910D01*
X128732981Y-110285872D01*
X128873821Y-110485431D01*
X128903565Y-110523491D01*
X128984594Y-110621579D01*
X129060714Y-110703603D01*
X129139025Y-110775820D01*
X129226626Y-110844491D01*
X129330618Y-110915872D01*
X129396387Y-110957936D01*
X129695131Y-111155292D01*
X129971101Y-111358668D01*
X130229553Y-111572713D01*
X130475747Y-111802072D01*
X130714937Y-112051393D01*
X130952384Y-112325324D01*
X130976728Y-112354851D01*
X131094258Y-112501635D01*
X131206192Y-112648398D01*
X131307737Y-112788646D01*
X131394099Y-112915892D01*
X131413688Y-112946382D01*
X131430620Y-112969241D01*
X131452779Y-112989126D01*
X131485411Y-113009058D01*
X131533762Y-113032059D01*
X131603077Y-113061151D01*
X131635922Y-113074398D01*
X131836795Y-113148582D01*
X132055010Y-113217961D01*
X132279977Y-113279635D01*
X132501111Y-113330704D01*
X132707821Y-113368265D01*
X132709588Y-113368535D01*
X132796853Y-113379212D01*
X132906340Y-113388694D01*
X133030274Y-113396636D01*
X133160885Y-113402691D01*
X133290397Y-113406512D01*
X133411041Y-113407754D01*
X133515041Y-113406072D01*
X133534996Y-113405272D01*
X133681472Y-113395628D01*
X133847241Y-113379688D01*
X134022548Y-113358666D01*
X134197635Y-113333777D01*
X134362747Y-113306235D01*
X134424810Y-113294551D01*
X134723475Y-113223197D01*
X135001662Y-113129929D01*
X135259439Y-113014705D01*
X135496874Y-112877482D01*
X135714033Y-112718216D01*
X135910982Y-112536864D01*
X136087791Y-112333382D01*
X136227078Y-112135502D01*
X136348899Y-111918645D01*
X136451690Y-111682431D01*
X136534061Y-111431777D01*
X136594623Y-111171600D01*
X136631988Y-110906813D01*
X136644725Y-110657294D01*
X136644812Y-110578980D01*
X136644220Y-110510069D01*
X136643052Y-110456810D01*
X136641408Y-110425455D01*
X136640846Y-110421289D01*
X136624459Y-110406535D01*
X136583412Y-110387639D01*
X136522523Y-110366070D01*
X136446609Y-110343296D01*
X136360489Y-110320784D01*
X136268979Y-110300003D01*
X136196138Y-110285791D01*
X136140139Y-110276398D01*
X136107950Y-110273475D01*
X136094023Y-110277306D01*
X136092807Y-110288183D01*
X136093562Y-110291095D01*
X136106642Y-110360050D01*
X136114458Y-110452740D01*
X136117315Y-110563417D01*
X136115516Y-110686330D01*
X136109366Y-110815732D01*
X136099168Y-110945872D01*
X136085228Y-111071001D01*
X136067847Y-111185370D01*
X136047330Y-111283231D01*
X136039563Y-111312182D01*
X135952506Y-111566184D01*
X135842938Y-111800718D01*
X135709962Y-112017129D01*
X135552684Y-112216760D01*
X135370207Y-112400954D01*
X135240958Y-112510427D01*
X135025518Y-112662368D01*
X134795446Y-112788349D01*
X134552087Y-112887809D01*
X134296788Y-112960185D01*
X134067086Y-113000547D01*
X134000018Y-113007567D01*
X133930134Y-113011278D01*
X133851066Y-113011678D01*
X133756448Y-113008766D01*
X133639912Y-113002545D01*
X133607748Y-113000544D01*
X133220259Y-112963042D01*
X132849550Y-112900760D01*
X132495323Y-112813588D01*
X132157278Y-112701422D01*
X131835122Y-112564152D01*
X131528556Y-112401672D01*
X131237283Y-112213874D01*
X131055706Y-112077933D01*
X130793184Y-111851106D01*
X130552672Y-111604521D01*
X130334874Y-111339546D01*
X130140489Y-111057546D01*
X129970218Y-110759887D01*
X129824761Y-110447938D01*
X129704821Y-110123062D01*
X129611097Y-109786628D01*
X129544292Y-109440002D01*
X129518746Y-109208279D01*
X129892063Y-109208279D01*
X129896426Y-109255108D01*
X129905368Y-109320587D01*
X129917987Y-109399377D01*
X129933382Y-109486142D01*
X129950649Y-109575548D01*
X129968888Y-109662258D01*
X129986846Y-109739520D01*
X130082027Y-110064382D01*
X130203390Y-110375589D01*
X130350036Y-110671964D01*
X130521066Y-110952329D01*
X130715582Y-111215509D01*
X130932687Y-111460325D01*
X131171481Y-111685601D01*
X131431065Y-111890158D01*
X131710542Y-112072821D01*
X131811617Y-112130659D01*
X132089674Y-112268380D01*
X132388957Y-112386434D01*
X132707492Y-112484181D01*
X133043302Y-112560977D01*
X133244088Y-112595497D01*
X133404899Y-112617382D01*
X133544156Y-112631002D01*
X133660230Y-112636308D01*
X133751495Y-112633248D01*
X133816322Y-112621771D01*
X133836010Y-112614063D01*
X133899443Y-112577768D01*
X133977195Y-112526712D01*
X134061583Y-112466537D01*
X134100460Y-112436843D01*
X134665194Y-112436843D01*
X134787924Y-112367298D01*
X134850350Y-112328478D01*
X134924925Y-112276878D01*
X135001476Y-112219770D01*
X135058825Y-112173730D01*
X135233092Y-112008682D01*
X135383848Y-111825233D01*
X135510266Y-111624502D01*
X135592651Y-111453806D01*
X135631264Y-111358470D01*
X135661145Y-111273159D01*
X135684047Y-111190204D01*
X135701724Y-111101935D01*
X135715932Y-111000686D01*
X135728421Y-110878789D01*
X135731112Y-110848449D01*
X135739734Y-110742183D01*
X135744789Y-110658121D01*
X135746310Y-110588677D01*
X135744331Y-110526267D01*
X135738887Y-110463304D01*
X135733039Y-110414903D01*
X135723433Y-110343246D01*
X135715681Y-110296312D01*
X135707866Y-110269055D01*
X135698071Y-110256431D01*
X135684375Y-110253395D01*
X135671959Y-110254222D01*
X135633010Y-110256993D01*
X135580501Y-110259564D01*
X135556818Y-110260419D01*
X135508268Y-110262528D01*
X135440872Y-110266214D01*
X135365705Y-110270850D01*
X135327498Y-110273408D01*
X135173687Y-110284025D01*
X135195233Y-110370529D01*
X135218334Y-110474345D01*
X135234083Y-110574308D01*
X135242781Y-110676944D01*
X135244730Y-110788774D01*
X135240230Y-110916323D01*
X135229584Y-111066115D01*
X135228150Y-111083060D01*
X135217061Y-111205171D01*
X135206578Y-111302811D01*
X135195898Y-111381480D01*
X135184220Y-111446681D01*
X135170742Y-111503914D01*
X135162508Y-111533190D01*
X135080817Y-111762507D01*
X134974415Y-111986103D01*
X134847387Y-112196032D01*
X134760035Y-112315878D01*
X134665194Y-112436843D01*
X134100460Y-112436843D01*
X134144924Y-112402881D01*
X134157598Y-112392435D01*
X134219533Y-112341384D01*
X134269421Y-112295928D01*
X134438255Y-112113093D01*
X134578694Y-111921194D01*
X134691279Y-111719101D01*
X134776553Y-111505682D01*
X134835060Y-111279806D01*
X134866444Y-111051415D01*
X134875083Y-110880756D01*
X134870100Y-110723577D01*
X134850653Y-110566205D01*
X134829693Y-110456576D01*
X134800366Y-110319235D01*
X134731501Y-110321984D01*
X134690373Y-110323973D01*
X134627450Y-110327435D01*
X134550883Y-110331905D01*
X134468819Y-110336916D01*
X134458198Y-110337582D01*
X134253871Y-110347769D01*
X134036793Y-110353826D01*
X133817393Y-110355673D01*
X133606098Y-110353228D01*
X133413336Y-110346411D01*
X133401117Y-110345785D01*
X133121639Y-110331130D01*
X133052838Y-110469621D01*
X133007871Y-110555102D01*
X132951857Y-110653817D01*
X132888497Y-110759913D01*
X132821497Y-110867533D01*
X132754556Y-110970822D01*
X132691379Y-111063924D01*
X132635668Y-111140982D01*
X132599547Y-111186459D01*
X132527995Y-111261130D01*
X132460267Y-111309848D01*
X132391183Y-111335284D01*
X132315569Y-111340110D01*
X132303534Y-111339238D01*
X132234275Y-111326998D01*
X132175325Y-111301555D01*
X132124610Y-111260114D01*
X132080053Y-111199880D01*
X132039580Y-111118056D01*
X132001113Y-111011847D01*
X131963211Y-110880838D01*
X131939776Y-110782220D01*
X131916072Y-110664041D01*
X131893845Y-110536678D01*
X131874845Y-110410507D01*
X131860820Y-110295905D01*
X131856165Y-110245501D01*
X131855636Y-110238792D01*
X132229919Y-110238792D01*
X132234020Y-110279343D01*
X132242002Y-110338257D01*
X132252962Y-110409984D01*
X132265998Y-110488975D01*
X132280208Y-110569679D01*
X132294688Y-110646548D01*
X132308536Y-110714030D01*
X132315869Y-110746451D01*
X132350853Y-110893928D01*
X132402311Y-110825714D01*
X132428472Y-110788207D01*
X132465451Y-110731407D01*
X132509021Y-110661985D01*
X132554956Y-110586609D01*
X132572591Y-110557054D01*
X132626356Y-110467698D01*
X132665661Y-110401347D01*
X132689226Y-110354048D01*
X132695772Y-110321849D01*
X132684017Y-110300796D01*
X132652683Y-110286940D01*
X132600489Y-110276326D01*
X132526156Y-110265003D01*
X132475428Y-110257051D01*
X132394482Y-110244128D01*
X132324574Y-110233534D01*
X132270764Y-110225989D01*
X132238114Y-110222217D01*
X132230603Y-110222153D01*
X132229919Y-110238792D01*
X131855636Y-110238792D01*
X131851714Y-110189005D01*
X131847274Y-110132657D01*
X131759647Y-110106179D01*
X131421517Y-109996054D01*
X131109183Y-109877417D01*
X130819234Y-109748629D01*
X130548260Y-109608048D01*
X130292846Y-109454037D01*
X130049582Y-109284955D01*
X130047414Y-109283341D01*
X129990481Y-109242246D01*
X129942687Y-109210160D01*
X129908773Y-109190094D01*
X129893477Y-109185055D01*
X129893180Y-109185431D01*
X129892063Y-109208279D01*
X129518746Y-109208279D01*
X129512556Y-109152131D01*
X129505106Y-109084550D01*
X129502867Y-109050718D01*
X129499214Y-108981772D01*
X129497077Y-108919580D01*
X129496719Y-108873271D01*
X129497355Y-108858105D01*
X129495437Y-108836186D01*
X129484394Y-108809089D01*
X129461607Y-108772731D01*
X129424456Y-108723025D01*
X129370317Y-108655887D01*
X129358119Y-108641095D01*
X129215121Y-108468113D01*
X129221754Y-108392297D01*
X129240699Y-108318532D01*
X129281359Y-108262883D01*
X129340913Y-108228677D01*
X129365598Y-108222407D01*
X129409638Y-108218745D01*
X129450766Y-108226900D01*
X129493361Y-108249632D01*
X129541801Y-108289704D01*
X129600461Y-108349879D01*
X129642988Y-108397473D01*
X129884125Y-108650173D01*
X130146320Y-108881622D01*
X130429294Y-109091665D01*
X130732765Y-109280146D01*
X131056454Y-109446908D01*
X131400079Y-109591799D01*
X131763361Y-109714658D01*
X132146018Y-109815334D01*
X132230540Y-109834013D01*
X132504237Y-109886239D01*
X132785354Y-109927133D01*
X133076737Y-109956801D01*
X133381232Y-109975347D01*
X133701683Y-109982876D01*
X134040934Y-109979493D01*
X134401832Y-109965302D01*
X134787220Y-109940409D01*
X134892768Y-109932117D01*
X135115627Y-109914808D01*
X135312004Y-109901428D01*
X135485165Y-109891953D01*
X135638371Y-109886364D01*
X135774887Y-109884642D01*
X135897977Y-109886765D01*
X136010905Y-109892712D01*
X136116933Y-109902465D01*
X136219326Y-109916001D01*
X136266399Y-109923543D01*
X136375186Y-109943246D01*
X136475930Y-109964865D01*
X136573556Y-109990025D01*
X136672993Y-110020351D01*
X136779169Y-110057467D01*
X136897008Y-110102999D01*
X137031438Y-110158571D01*
X137187386Y-110225806D01*
X137200897Y-110231719D01*
X137350374Y-110295926D01*
X137477996Y-110347683D01*
X137588445Y-110388548D01*
X137686405Y-110420074D01*
X137776559Y-110443814D01*
X137863589Y-110461323D01*
X137918026Y-110469731D01*
X138084855Y-110483142D01*
X138233617Y-110474041D01*
X138366740Y-110441831D01*
X138486655Y-110385915D01*
X138595789Y-110305695D01*
X138599896Y-110302034D01*
X138704771Y-110188177D01*
X138788260Y-110055797D01*
X138849482Y-109908276D01*
X138887553Y-109748998D01*
X138901589Y-109581350D01*
X138890711Y-109408712D01*
X138866294Y-109280521D01*
X138827518Y-109145601D01*
X138777077Y-109011575D01*
X138713259Y-108875578D01*
X138634350Y-108734740D01*
X138538639Y-108586192D01*
X138424410Y-108427068D01*
X138289951Y-108254500D01*
X138157371Y-108093793D01*
X137886758Y-107787894D01*
X137615412Y-107511649D01*
X137342878Y-107264710D01*
X137068692Y-107046727D01*
X136792398Y-106857350D01*
X136513534Y-106696228D01*
X136231643Y-106563015D01*
X136057078Y-106494975D01*
X135833882Y-106423075D01*
X135609449Y-106367782D01*
X135380709Y-106329008D01*
X135144596Y-106306667D01*
X134898043Y-106300673D01*
X134637980Y-106310940D01*
X134361343Y-106337380D01*
X134065062Y-106379909D01*
X133783410Y-106431014D01*
X133744418Y-106439324D01*
X133678391Y-106454159D01*
X133587401Y-106475026D01*
X133473525Y-106501428D01*
X133338837Y-106532870D01*
X133185411Y-106568858D01*
X133015321Y-106608897D01*
X132830642Y-106652492D01*
X132633450Y-106699146D01*
X132425819Y-106748365D01*
X132209822Y-106799653D01*
X131987536Y-106852517D01*
X131761034Y-106906459D01*
X131532390Y-106960987D01*
X131303681Y-107015605D01*
X131076979Y-107069816D01*
X130854360Y-107123126D01*
X130637898Y-107175041D01*
X130429668Y-107225065D01*
X130231745Y-107272701D01*
X130046202Y-107317457D01*
X129875116Y-107358836D01*
X129720560Y-107396344D01*
X129584608Y-107429485D01*
X129469337Y-107457764D01*
X129376818Y-107480685D01*
X129309129Y-107497755D01*
X129268343Y-107508478D01*
X129265624Y-107509238D01*
X129157060Y-107543517D01*
X129048077Y-107584310D01*
X128948262Y-107627718D01*
X128867199Y-107669839D01*
X128859305Y-107674549D01*
X128738819Y-107764317D01*
X128628500Y-107879946D01*
X128530821Y-108018291D01*
X128448254Y-108176211D01*
X128428939Y-108221637D01*
X128410988Y-108266955D01*
X128397076Y-108306487D01*
X128386208Y-108345721D01*
X128377388Y-108390142D01*
X128369619Y-108445236D01*
X128361906Y-108516489D01*
X128353252Y-108609386D01*
X128348198Y-108666380D01*
X128338688Y-108779327D01*
X128332423Y-108868643D01*
X128329294Y-108940514D01*
X128329198Y-109001127D01*
X127960562Y-109001127D01*
X127958028Y-108767890D01*
X127966147Y-108632955D01*
X127966869Y-108620952D01*
X127999851Y-108383512D01*
X128055293Y-108164069D01*
X128132774Y-107963332D01*
X128231876Y-107782008D01*
X128352181Y-107620812D01*
X128493270Y-107480450D01*
X128654726Y-107361634D01*
X128736984Y-107313728D01*
X128803259Y-107279923D01*
X128872898Y-107248606D01*
X128949641Y-107218573D01*
X129037225Y-107188619D01*
X129139387Y-107157539D01*
X129259865Y-107124132D01*
X129402398Y-107087189D01*
X129565367Y-107046815D01*
X129979434Y-106945859D01*
X129899837Y-106873837D01*
X129760540Y-106729214D01*
X129635505Y-106562032D01*
X129527711Y-106377531D01*
X129440134Y-106180956D01*
X129375749Y-105977547D01*
X129364796Y-105931523D01*
X129339929Y-105802076D01*
X129325724Y-105679065D01*
X129321684Y-105552607D01*
X129324288Y-105487947D01*
X129694171Y-105487947D01*
X129702866Y-105681535D01*
X129736222Y-105872882D01*
X129794883Y-106059823D01*
X129879497Y-106240192D01*
X129990707Y-106411825D01*
X130051591Y-106487972D01*
X130138331Y-106579271D01*
X130236711Y-106665510D01*
X130337396Y-106739055D01*
X130412136Y-106783006D01*
X130495046Y-106825503D01*
X131654667Y-106545553D01*
X131835957Y-106501736D01*
X132008721Y-106459880D01*
X132170753Y-106420528D01*
X132319845Y-106384218D01*
X132453789Y-106351492D01*
X132570378Y-106322892D01*
X132667403Y-106298957D01*
X132742657Y-106280229D01*
X132793931Y-106267247D01*
X132819019Y-106260554D01*
X132821208Y-106259794D01*
X132828790Y-106244020D01*
X132843611Y-106206246D01*
X132863220Y-106152870D01*
X132876902Y-106114198D01*
X132953121Y-105857912D01*
X133001879Y-105605497D01*
X133022984Y-105358754D01*
X133016244Y-105119482D01*
X132998242Y-104977148D01*
X132953247Y-104784486D01*
X132884601Y-104599168D01*
X132794704Y-104424731D01*
X132685957Y-104264715D01*
X132560763Y-104122657D01*
X132421524Y-104002099D01*
X132272265Y-103907432D01*
X132185604Y-103864818D01*
X132103863Y-103832289D01*
X132018425Y-103807353D01*
X131920676Y-103787519D01*
X131801998Y-103770295D01*
X131794883Y-103769397D01*
X131573350Y-103753554D01*
X131359130Y-103763368D01*
X131147154Y-103799544D01*
X130932357Y-103862789D01*
X130821561Y-103905093D01*
X130619148Y-104002017D01*
X130434941Y-104118351D01*
X130269587Y-104251929D01*
X130123729Y-104400586D01*
X129998015Y-104562157D01*
X129893088Y-104734477D01*
X129809595Y-104915382D01*
X129748181Y-105102705D01*
X129709490Y-105294281D01*
X129694171Y-105487947D01*
X129324288Y-105487947D01*
X129327314Y-105412823D01*
X129334372Y-105326450D01*
X129344135Y-105262316D01*
X129371912Y-105079848D01*
X129436953Y-104843676D01*
X129528356Y-104619411D01*
X129644985Y-104408524D01*
X129785702Y-104212493D01*
X129949369Y-104032789D01*
X130134850Y-103870889D01*
X130341007Y-103728266D01*
X130566701Y-103606395D01*
X130708988Y-103544654D01*
X130935991Y-103468084D01*
X131169725Y-103414965D01*
X131406060Y-103385412D01*
X131640866Y-103379538D01*
X131870012Y-103397458D01*
X132089369Y-103439284D01*
X132284637Y-103501154D01*
X132476386Y-103591229D01*
X132654788Y-103706916D01*
X132818169Y-103846185D01*
X132964850Y-104007007D01*
X133093160Y-104187349D01*
X133201420Y-104385183D01*
X133287958Y-104598478D01*
X133341020Y-104781364D01*
X133376516Y-104977413D01*
X133393769Y-105189895D01*
X133393068Y-105411639D01*
X133374703Y-105635479D01*
X133338963Y-105854247D01*
X133289791Y-106048841D01*
X133275886Y-106097948D01*
X133267353Y-106134388D01*
X133266020Y-106150040D01*
X133281551Y-106148946D01*
X133321812Y-106142335D01*
X133382210Y-106131069D01*
X133458156Y-106116005D01*
X133545058Y-106098004D01*
X133551996Y-106096537D01*
X133831427Y-106040704D01*
X134088091Y-105996776D01*
X134326591Y-105964364D01*
X134551534Y-105943075D01*
X134767520Y-105932520D01*
X134979155Y-105932309D01*
X135191043Y-105942051D01*
X135286386Y-105949463D01*
X135597693Y-105988835D01*
X135896283Y-106052324D01*
X136186013Y-106141194D01*
X136470738Y-106256706D01*
X136754317Y-106400120D01*
X136873502Y-106468680D01*
X136938209Y-106506703D01*
X136993105Y-106538027D01*
X137033390Y-106559984D01*
X137054264Y-106569906D01*
X137056037Y-106570128D01*
X137056771Y-106554289D01*
X137053639Y-106517318D01*
X137048373Y-106475089D01*
X137030017Y-106298731D01*
X137022587Y-106116797D01*
X137023558Y-106061531D01*
X137392117Y-106061531D01*
X137397137Y-106165107D01*
X137407527Y-106290142D01*
X137422409Y-106428746D01*
X137440909Y-106573029D01*
X137462146Y-106715103D01*
X137470168Y-106763460D01*
X137492755Y-106895775D01*
X137604842Y-106991723D01*
X137736764Y-107107771D01*
X137867725Y-107229619D01*
X138001883Y-107361403D01*
X138143395Y-107507254D01*
X138296415Y-107671304D01*
X138373802Y-107756212D01*
X138476804Y-107869947D01*
X138486433Y-107815990D01*
X138490025Y-107782888D01*
X138493743Y-107726189D01*
X138497266Y-107652302D01*
X138500273Y-107567631D01*
X138501786Y-107510336D01*
X138497710Y-107085480D01*
X138465875Y-106671876D01*
X138406245Y-106269300D01*
X138318786Y-105877525D01*
X138203464Y-105496326D01*
X138176336Y-105419349D01*
X138151630Y-105352893D01*
X138122401Y-105277336D01*
X138090897Y-105198140D01*
X138059366Y-105120767D01*
X138030055Y-105050678D01*
X138005211Y-104993334D01*
X137987082Y-104954198D01*
X137978951Y-104939701D01*
X137962307Y-104941224D01*
X137928341Y-104958621D01*
X137882507Y-104988225D01*
X137830253Y-105026369D01*
X137777031Y-105069388D01*
X137747795Y-105095193D01*
X137638385Y-105215332D01*
X137547607Y-105356860D01*
X137476546Y-105516818D01*
X137426294Y-105692252D01*
X137397936Y-105880205D01*
X137392117Y-106061531D01*
X137023558Y-106061531D01*
X137025761Y-105936117D01*
X137032615Y-105848243D01*
X137039222Y-105763521D01*
X137062649Y-105605835D01*
X137095437Y-105470816D01*
X137169645Y-105274292D01*
X137266194Y-105093848D01*
X137383293Y-104932261D01*
X137519150Y-104792308D01*
X137550805Y-104765172D01*
X137608605Y-104719500D01*
X137664746Y-104678974D01*
X137711287Y-104649147D01*
X137732198Y-104638310D01*
X137768397Y-104620287D01*
X137789402Y-104604748D01*
X137791420Y-104600918D01*
X137784839Y-104582475D01*
X137766509Y-104546258D01*
X137740382Y-104500064D01*
X137740051Y-104499505D01*
X137710693Y-104445605D01*
X137695979Y-104403775D01*
X137692532Y-104362092D01*
X137694028Y-104336997D01*
X137701499Y-104287657D01*
X137718057Y-104253740D01*
X137751171Y-104220706D01*
X137755745Y-104216836D01*
X137793277Y-104188965D01*
X137827004Y-104176744D01*
X137871301Y-104175928D01*
X137889545Y-104177337D01*
X137937375Y-104183605D01*
X137969428Y-104196527D01*
X137998231Y-104223005D01*
X138019837Y-104249109D01*
X138052967Y-104296267D01*
X138095701Y-104365553D01*
X138145260Y-104451767D01*
X138198858Y-104549709D01*
X138253712Y-104654176D01*
X138307040Y-104759970D01*
X138356059Y-104861891D01*
X138397984Y-104954735D01*
X138400242Y-104959971D01*
X138431146Y-105031190D01*
X138458337Y-105092633D01*
X138479414Y-105138961D01*
X138491974Y-105164839D01*
X138493886Y-105168042D01*
X138508197Y-105164069D01*
X138538223Y-105141328D01*
X138580013Y-105103711D01*
X138629615Y-105055110D01*
X138683078Y-104999419D01*
X138736446Y-104940530D01*
X138785771Y-104882335D01*
X138792721Y-104873727D01*
X138920645Y-104693293D01*
X139030537Y-104495820D01*
X139118203Y-104289578D01*
X139165870Y-104137810D01*
X139190434Y-104019760D01*
X139206850Y-103886922D01*
X139214584Y-103749657D01*
X139213102Y-103618325D01*
X139201866Y-103503286D01*
X139199392Y-103488552D01*
X139146082Y-103272612D01*
X139066197Y-103065850D01*
X138961903Y-102870643D01*
X138835363Y-102689368D01*
X138688742Y-102524401D01*
X138524205Y-102378120D01*
X138343915Y-102252902D01*
X138150036Y-102151123D01*
X137944735Y-102075161D01*
X137901325Y-102062964D01*
X137694475Y-102023049D01*
X137480042Y-102010177D01*
X137262105Y-102023743D01*
X137044739Y-102063143D01*
X136832026Y-102127774D01*
X136628044Y-102217031D01*
X136541403Y-102264361D01*
X136482933Y-102300165D01*
X136422675Y-102339973D01*
X136365522Y-102380166D01*
X136316371Y-102417125D01*
X136280117Y-102447229D01*
X136261653Y-102466858D01*
X136260820Y-102471845D01*
X136275354Y-102482562D01*
X136309345Y-102506340D01*
X136357393Y-102539430D01*
X136402799Y-102570410D01*
X136563446Y-102685354D01*
X136734094Y-102817786D01*
X136906845Y-102961112D01*
X137073800Y-103108739D01*
X137227063Y-103254071D01*
X137255282Y-103282185D01*
X137326454Y-103361245D01*
X137371067Y-103430049D01*
X137389627Y-103491289D01*
X137382643Y-103547656D01*
X137350622Y-103601842D01*
X137321453Y-103632698D01*
X137283482Y-103661227D01*
X137241165Y-103673890D01*
X137201251Y-103676146D01*
X137174818Y-103676155D01*
X137152676Y-103674145D01*
X137131349Y-103667607D01*
X137107361Y-103654030D01*
X137077237Y-103630902D01*
X137037500Y-103595711D01*
X136984675Y-103545948D01*
X136915287Y-103479102D01*
X136876297Y-103441391D01*
X136657519Y-103243052D01*
X136414905Y-103047118D01*
X136154560Y-102857971D01*
X135882591Y-102679995D01*
X135605101Y-102517573D01*
X135541381Y-102483006D01*
X135142514Y-102286724D01*
X134732917Y-102118056D01*
X134314112Y-101977297D01*
X133887613Y-101864744D01*
X133454938Y-101780694D01*
X133017605Y-101725440D01*
X132577130Y-101699282D01*
X132135030Y-101702515D01*
X131704693Y-101734158D01*
X131502328Y-101755712D01*
X131505407Y-101810129D01*
X131505452Y-101994686D01*
X131486770Y-102187285D01*
X131451004Y-102374387D01*
X131425597Y-102466977D01*
X131390732Y-102544370D01*
X131342298Y-102598620D01*
X131282942Y-102627473D01*
X131232580Y-102631072D01*
X131155185Y-102612323D01*
X131098411Y-102573139D01*
X131064376Y-102516278D01*
X131055197Y-102444498D01*
X131060071Y-102406406D01*
X131070473Y-102357805D01*
X131085079Y-102293322D01*
X131100882Y-102226202D01*
X131102240Y-102220572D01*
X131122228Y-102106002D01*
X131132492Y-101974352D01*
X131132555Y-101837087D01*
X131123215Y-101715876D01*
X131081547Y-101490176D01*
X131013148Y-101276935D01*
X130919132Y-101077438D01*
X130800613Y-100892969D01*
X130658708Y-100724811D01*
X130494530Y-100574248D01*
X130309195Y-100442563D01*
X130103816Y-100331040D01*
X129879510Y-100240962D01*
X129827469Y-100224068D01*
X129740304Y-100202346D01*
X129631737Y-100183511D01*
X129510297Y-100168311D01*
X129384509Y-100157490D01*
X129262900Y-100151794D01*
X129153999Y-100151971D01*
X129072159Y-100157987D01*
X128822064Y-100204872D01*
X128579952Y-100279684D01*
X128348215Y-100380873D01*
X128129242Y-100506886D01*
X127925423Y-100656174D01*
X127739150Y-100827185D01*
X127572810Y-101018369D01*
X127432654Y-101221813D01*
X127325206Y-101422078D01*
X127247622Y-101620784D01*
X127199919Y-101817844D01*
X127182116Y-102013174D01*
X127194233Y-102206687D01*
X127205920Y-102275884D01*
X127255002Y-102455692D01*
X127327154Y-102616613D01*
X127421631Y-102758010D01*
X127537686Y-102879248D01*
X127674574Y-102979689D01*
X127831547Y-103058698D01*
X128007860Y-103115640D01*
X128202766Y-103149875D01*
X128234781Y-103153126D01*
X128313604Y-103158652D01*
X128393098Y-103161330D01*
X128461347Y-103160877D01*
X128490078Y-103159163D01*
X128664059Y-103130058D01*
X128827063Y-103077072D01*
X128976431Y-103002212D01*
X129109504Y-102907481D01*
X129223621Y-102794883D01*
X129316124Y-102666422D01*
X129384353Y-102524104D01*
X129401815Y-102472029D01*
X129427020Y-102343145D01*
X129424418Y-102214119D01*
X129393779Y-102080760D01*
X129378045Y-102036563D01*
X129319189Y-101918084D01*
X129243445Y-101819783D01*
X129154168Y-101742738D01*
X129054711Y-101688027D01*
X128948428Y-101656732D01*
X128838673Y-101649929D01*
X128728801Y-101668700D01*
X128622165Y-101714122D01*
X128544023Y-101768225D01*
X128473755Y-101815287D01*
X128408872Y-101834354D01*
X128345940Y-101826116D01*
X128317201Y-101813608D01*
X128259634Y-101768206D01*
X128225117Y-101708186D01*
X128215328Y-101639995D01*
X128231948Y-101570082D01*
X128246590Y-101542728D01*
X128295417Y-101486234D01*
X128367200Y-101430012D01*
X128455096Y-101377826D01*
X128552260Y-101333441D01*
X128651848Y-101300625D01*
X128709296Y-101288160D01*
X128788532Y-101281336D01*
X128884901Y-101282811D01*
X128987012Y-101291575D01*
X129083472Y-101306615D01*
X129162890Y-101326919D01*
X129168747Y-101328948D01*
X129308043Y-101394055D01*
X129435390Y-101484280D01*
X129548061Y-101596190D01*
X129643325Y-101726346D01*
X129718453Y-101871315D01*
X129770715Y-102027659D01*
X129787148Y-102107372D01*
X129797399Y-102221731D01*
X129794847Y-102350393D01*
X129780430Y-102480986D01*
X129755089Y-102601141D01*
X129747749Y-102626205D01*
X129696224Y-102753684D01*
X129622035Y-102884918D01*
X129530530Y-103012889D01*
X129427047Y-103130574D01*
X129316930Y-103230953D01*
X129250657Y-103279453D01*
X129073251Y-103379612D01*
X128880494Y-103456982D01*
X128678919Y-103509305D01*
X128522316Y-103531063D01*
X128419778Y-103535007D01*
X128301428Y-103531815D01*
X128177426Y-103522375D01*
X128057929Y-103507578D01*
X127953097Y-103488313D01*
X127909849Y-103477423D01*
X127854424Y-103461971D01*
X127810373Y-103450183D01*
X127785466Y-103444125D01*
X127783155Y-103443748D01*
X127765886Y-103455127D01*
X127735751Y-103488539D01*
X127695286Y-103540265D01*
X127647031Y-103606589D01*
X127593523Y-103683794D01*
X127537301Y-103768163D01*
X127480901Y-103855977D01*
X127426865Y-103943521D01*
X127377728Y-104027076D01*
X127346497Y-104083255D01*
X127247265Y-104277778D01*
X127153415Y-104482003D01*
X127068465Y-104687481D01*
X126995926Y-104885766D01*
X126944579Y-105049599D01*
X126924042Y-105117043D01*
X126905631Y-105163039D01*
X126885311Y-105195506D01*
X126859046Y-105222361D01*
X126854560Y-105226211D01*
X126818107Y-105253063D01*
X126784148Y-105264584D01*
X126738431Y-105264886D01*
X126724377Y-105263768D01*
X126674428Y-105256758D01*
X126640877Y-105242160D01*
X126610122Y-105213174D01*
X126600288Y-105201707D01*
X126572865Y-105165018D01*
X126560499Y-105132215D01*
X126559213Y-105089490D01*
X126561011Y-105065379D01*
X126569453Y-105017439D01*
X126587480Y-104947099D01*
X126613313Y-104859726D01*
X126645173Y-104760690D01*
X126681282Y-104655361D01*
X126719859Y-104549109D01*
X126759128Y-104447302D01*
X126792643Y-104366125D01*
X126892387Y-104148636D01*
X127005360Y-103928565D01*
X127126608Y-103714815D01*
X127251174Y-103516288D01*
X127327792Y-103404895D01*
X127423493Y-103271185D01*
X127321401Y-103190603D01*
X127186535Y-103065362D01*
X127070123Y-102918284D01*
X126973408Y-102752112D01*
X126897633Y-102569584D01*
X126844042Y-102373445D01*
X126813876Y-102166434D01*
X126807920Y-102057910D01*
X126816514Y-101864164D01*
X126850528Y-101662497D01*
X126908315Y-101457951D01*
X126988234Y-101255564D01*
X127088637Y-101060376D01*
X127180685Y-100915550D01*
X127216655Y-100862989D01*
X127244551Y-100820561D01*
X127260957Y-100793567D01*
X127263758Y-100786673D01*
X127239634Y-100771330D01*
X127194250Y-100744915D01*
X127132894Y-100710332D01*
X127060859Y-100670487D01*
X126983434Y-100628287D01*
X126905910Y-100586635D01*
X126833577Y-100548436D01*
X126774879Y-100518192D01*
X126356976Y-100323041D01*
X125921492Y-100151791D01*
X125468171Y-100004358D01*
X124996756Y-99880654D01*
X124597231Y-99797001D01*
X124481079Y-99777616D01*
X124341765Y-99758117D01*
X124185596Y-99739090D01*
X124018876Y-99721124D01*
X123847910Y-99704805D01*
X123679004Y-99690723D01*
X123518462Y-99679465D01*
X123372589Y-99671620D01*
X123247692Y-99667773D01*
X123207958Y-99667481D01*
X122678226Y-99682239D01*
X122157674Y-99725560D01*
X121646246Y-99797460D01*
X121143883Y-99897954D01*
X120650525Y-100027059D01*
X120166117Y-100184789D01*
X119690597Y-100371161D01*
X119223910Y-100586189D01*
X118765997Y-100829889D01*
X118695136Y-100870616D01*
X118616771Y-100915684D01*
X118558868Y-100947402D01*
X118516183Y-100967899D01*
X118483471Y-100979304D01*
X118455490Y-100983744D01*
X118426994Y-100983349D01*
X118418937Y-100982725D01*
X118369856Y-100975243D01*
X118335860Y-100958134D01*
X118302098Y-100923724D01*
X118300063Y-100921309D01*
X118272237Y-100883864D01*
X118260000Y-100850232D01*
X118259136Y-100806097D01*
X118260586Y-100787261D01*
X118266494Y-100740852D01*
X118278473Y-100709362D01*
X118303055Y-100681285D01*
X118336731Y-100653110D01*
X118395481Y-100611161D01*
X118478044Y-100559465D01*
X118580593Y-100499957D01*
X118699305Y-100434568D01*
X118830353Y-100365236D01*
X118969911Y-100293893D01*
X119114152Y-100222472D01*
X119259252Y-100152909D01*
X119401384Y-100087137D01*
X119536723Y-100027090D01*
X119661443Y-99974702D01*
X119739660Y-99943898D01*
X119830190Y-99909445D01*
X119826100Y-99833609D01*
X119826042Y-99783152D01*
X119829443Y-99708732D01*
X119835745Y-99616123D01*
X119844393Y-99511096D01*
X119854832Y-99399426D01*
X119866505Y-99286885D01*
X119878858Y-99179247D01*
X119891334Y-99082286D01*
X119903378Y-99001774D01*
X119909494Y-98967234D01*
X120002131Y-98563126D01*
X120124105Y-98163435D01*
X120274972Y-97768941D01*
X120454282Y-97380424D01*
X120661589Y-96998662D01*
X120896447Y-96624434D01*
X121158409Y-96258521D01*
X121447028Y-95901702D01*
X121761858Y-95554756D01*
X122005712Y-95310351D01*
X122057103Y-95262757D01*
X122127320Y-95200505D01*
X122211651Y-95127541D01*
X122305375Y-95047807D01*
X122403777Y-94965248D01*
X122502140Y-94883809D01*
X122595748Y-94807435D01*
X122679886Y-94740068D01*
X122749836Y-94685655D01*
X122777400Y-94664990D01*
X123156308Y-94402539D01*
X123546260Y-94164531D01*
X123944578Y-93952408D01*
X124348581Y-93767612D01*
X124695293Y-93632797D01*
X125143180Y-93487170D01*
X125604752Y-93364860D01*
X126073212Y-93267401D01*
X126541763Y-93196322D01*
X126723236Y-93176064D01*
X126807546Y-93167305D01*
X126866141Y-93160083D01*
X126903200Y-93153384D01*
X126922906Y-93146190D01*
X126929438Y-93137487D01*
X126927102Y-93126549D01*
X126919989Y-93101157D01*
X126909655Y-93053193D01*
X126897531Y-92989728D01*
X126886027Y-92923729D01*
X126858691Y-92669508D01*
X126859450Y-92551505D01*
X127228253Y-92551505D01*
X127238420Y-92734278D01*
X127264071Y-92911163D01*
X127298552Y-93052896D01*
X127323452Y-93135852D01*
X127392843Y-93132431D01*
X127561945Y-93127636D01*
X127748953Y-93129196D01*
X127956306Y-93137224D01*
X128186445Y-93151838D01*
X128441814Y-93173151D01*
X128616535Y-93190048D01*
X128779611Y-93206777D01*
X128918099Y-93221631D01*
X129037296Y-93235394D01*
X129142502Y-93248842D01*
X129239015Y-93262759D01*
X129332136Y-93277923D01*
X129427162Y-93295117D01*
X129529393Y-93315120D01*
X129644127Y-93338712D01*
X129687078Y-93347722D01*
X130193497Y-93468941D01*
X130698783Y-93618796D01*
X131199420Y-93796009D01*
X131691898Y-93999307D01*
X132172698Y-94227414D01*
X132318840Y-94302971D01*
X132401298Y-94346246D01*
X132481635Y-94388021D01*
X132553062Y-94424792D01*
X132608790Y-94453056D01*
X132631561Y-94464327D01*
X132691756Y-94488647D01*
X132755251Y-94506312D01*
X132814985Y-94516313D01*
X132863891Y-94517643D01*
X132894908Y-94509292D01*
X132900845Y-94502772D01*
X132903913Y-94474647D01*
X132889498Y-94435456D01*
X132856258Y-94383067D01*
X132802847Y-94315352D01*
X132731291Y-94233881D01*
X132379276Y-93867983D01*
X132003298Y-93518469D01*
X131605254Y-93186506D01*
X131187041Y-92873264D01*
X130750559Y-92579912D01*
X130297707Y-92307619D01*
X129830381Y-92057553D01*
X129350482Y-91830886D01*
X128859907Y-91628783D01*
X128360555Y-91452417D01*
X128068579Y-91362644D01*
X127961253Y-91331280D01*
X127878936Y-91307467D01*
X127817670Y-91290934D01*
X127773495Y-91281412D01*
X127742455Y-91278629D01*
X127720589Y-91282315D01*
X127703939Y-91292201D01*
X127688545Y-91308017D01*
X127670450Y-91329492D01*
X127665543Y-91335143D01*
X127563084Y-91468993D01*
X127469317Y-91625416D01*
X127387086Y-91797556D01*
X127319236Y-91978555D01*
X127268609Y-92161557D01*
X127238054Y-92339705D01*
X127234617Y-92373971D01*
X127228253Y-92551505D01*
X126859450Y-92551505D01*
X126860336Y-92413662D01*
X126868787Y-92341965D01*
X126890317Y-92159314D01*
X126947989Y-91909586D01*
X127032704Y-91667598D01*
X127143816Y-91436471D01*
X127220505Y-91307998D01*
X127256437Y-91253163D01*
X127280057Y-91214268D01*
X127288715Y-91187651D01*
X127279764Y-91169654D01*
X127250553Y-91156616D01*
X127198435Y-91144877D01*
X127120758Y-91130777D01*
X127087884Y-91124763D01*
X126878374Y-91089134D01*
X126650512Y-91056220D01*
X126410717Y-91026612D01*
X126165407Y-91000903D01*
X125921002Y-90979683D01*
X125683923Y-90963547D01*
X125460586Y-90953084D01*
X125257412Y-90948887D01*
X125183069Y-90949097D01*
X124640025Y-90969821D01*
X124100229Y-91019941D01*
X123564868Y-91098919D01*
X123035124Y-91206216D01*
X122512182Y-91341295D01*
X121997227Y-91503615D01*
X121491441Y-91692641D01*
X120996011Y-91907833D01*
X120512119Y-92148651D01*
X120040950Y-92414559D01*
X119583689Y-92705017D01*
X119141520Y-93019488D01*
X118715626Y-93357433D01*
X118307192Y-93718313D01*
X117917402Y-94101590D01*
X117674047Y-94363088D01*
X117394674Y-94688450D01*
X117132572Y-95024079D01*
X116883045Y-95376315D01*
X116641399Y-95751498D01*
X116619151Y-95787795D01*
X116349856Y-96255401D01*
X116107868Y-96731560D01*
X115892669Y-97217719D01*
X115703737Y-97715324D01*
X115540555Y-98225823D01*
X115402603Y-98750662D01*
X115289364Y-99291288D01*
X115225721Y-99671916D01*
X115171603Y-100106653D01*
X115137406Y-100556231D01*
X115122966Y-101015118D01*
X115128111Y-101477780D01*
X115152674Y-101938685D01*
X115196486Y-102392299D01*
X115259382Y-102833092D01*
X115333514Y-103220509D01*
X115353480Y-103312616D01*
X115391260Y-103253047D01*
X115479104Y-103122224D01*
X115585678Y-102976243D01*
X115707136Y-102819708D01*
X115839627Y-102657218D01*
X115979298Y-102493375D01*
X116122303Y-102332782D01*
X116264789Y-102180039D01*
X116402907Y-102039749D01*
X116422464Y-102020597D01*
X116495336Y-101951028D01*
X116577836Y-101874679D01*
X116666143Y-101794860D01*
X116756435Y-101714880D01*
X116844894Y-101638050D01*
X116927697Y-101567680D01*
X117001024Y-101507081D01*
X117061053Y-101459561D01*
X117103966Y-101428430D01*
X117111538Y-101423617D01*
X117174916Y-101398122D01*
X117243167Y-101391345D01*
X117305955Y-101403254D01*
X117343148Y-101424348D01*
X117384777Y-101477493D01*
X117404967Y-101543563D01*
X117402389Y-101613218D01*
X117378464Y-101672917D01*
X117356012Y-101699133D01*
X117316202Y-101737175D01*
X117265698Y-101780881D01*
X117235074Y-101805650D01*
X116919432Y-102071329D01*
X116613040Y-102362880D01*
X116318936Y-102676818D01*
X116040163Y-103009658D01*
X115779756Y-103357916D01*
X115540756Y-103718107D01*
X115479256Y-103818675D01*
X115247133Y-104233956D01*
X115043133Y-104659481D01*
X114867387Y-105094690D01*
X114720025Y-105539022D01*
X114601178Y-105991917D01*
X114510974Y-106452813D01*
X114449546Y-106921152D01*
X114417022Y-107396370D01*
X114413534Y-107877910D01*
X114434965Y-108311472D01*
X114441713Y-108403303D01*
X114445780Y-108470399D01*
X114446989Y-108517927D01*
X114445156Y-108551052D01*
X114440101Y-108574943D01*
X114431645Y-108594763D01*
X114424616Y-108607269D01*
X114379523Y-108658939D01*
X114322252Y-108689305D01*
X114259403Y-108698881D01*
X114197578Y-108688182D01*
X114143377Y-108657722D01*
X114103403Y-108608013D01*
X114092404Y-108581394D01*
X114082874Y-108537121D01*
X114073546Y-108467451D01*
X114064684Y-108376993D01*
X114056555Y-108270355D01*
X114049424Y-108152144D01*
X114043557Y-108026972D01*
X114039220Y-107899446D01*
X114036679Y-107774176D01*
X114036198Y-107655769D01*
X114036608Y-107613755D01*
X114037070Y-107544010D01*
X114036470Y-107485877D01*
X114034936Y-107445545D01*
X114032683Y-107429288D01*
X114016844Y-107430790D01*
X113978087Y-107440340D01*
X113921938Y-107456427D01*
X113853921Y-107477541D01*
X113841202Y-107481642D01*
X113767010Y-107505004D01*
X113672187Y-107533814D01*
X113565045Y-107565607D01*
X113453893Y-107597915D01*
X113347342Y-107628190D01*
X113132688Y-107689835D01*
X112944575Y-107747324D01*
X112780033Y-107801940D01*
X112636092Y-107854964D01*
X112509785Y-107907682D01*
X112398143Y-107961373D01*
X112298197Y-108017321D01*
X112206977Y-108076808D01*
X112121516Y-108141117D01*
X112079517Y-108175907D01*
X111959289Y-108290161D01*
X111866001Y-108406651D01*
X111796728Y-108530566D01*
X111748552Y-108667094D01*
X111719350Y-108815463D01*
X111707122Y-108966744D01*
X111331833Y-108966744D01*
X111332970Y-108957194D01*
X111339924Y-108886542D01*
X111341467Y-108868999D01*
X111349335Y-108787576D01*
X111349852Y-108783136D01*
X111358356Y-108710164D01*
X111367445Y-108645247D01*
X111375518Y-108601309D01*
X111375907Y-108599683D01*
X111393319Y-108528424D01*
X111273418Y-108580167D01*
X111190616Y-108618463D01*
X111120786Y-108655773D01*
X111068065Y-108689540D01*
X111036587Y-108717204D01*
X111029439Y-108731068D01*
X110657024Y-108731068D01*
X110656009Y-108724162D01*
X110656039Y-108698400D01*
X110656043Y-108695523D01*
X110679526Y-108598437D01*
X110732429Y-108506159D01*
X110814526Y-108418849D01*
X110925594Y-108336664D01*
X111065406Y-108259761D01*
X111233740Y-108188301D01*
X111430371Y-108122440D01*
X111496038Y-108103464D01*
X111566206Y-108083052D01*
X111616233Y-108065036D01*
X111655085Y-108044514D01*
X111691726Y-108016584D01*
X111735121Y-107976344D01*
X111743742Y-107967998D01*
X111856394Y-107867262D01*
X111979488Y-107774536D01*
X112115809Y-107688467D01*
X112268141Y-107607698D01*
X112439269Y-107530876D01*
X112631976Y-107456643D01*
X112849047Y-107383646D01*
X113093267Y-107310528D01*
X113096577Y-107309587D01*
X113245697Y-107267127D01*
X113369733Y-107231592D01*
X113472494Y-107201811D01*
X113557788Y-107176617D01*
X113629426Y-107154840D01*
X113691217Y-107135311D01*
X113746969Y-107116861D01*
X113800492Y-107098320D01*
X113855596Y-107078520D01*
X113887387Y-107066880D01*
X114067892Y-107000484D01*
X114104876Y-106684877D01*
X114138436Y-106430824D01*
X114178647Y-106189522D01*
X114227466Y-105951577D01*
X114286842Y-105707592D01*
X114358730Y-105448175D01*
X114369843Y-105410298D01*
X114466203Y-105110382D01*
X114579911Y-104802213D01*
X114707263Y-104494565D01*
X114844556Y-104196217D01*
X114988087Y-103915943D01*
X115040078Y-103822032D01*
X115075432Y-103759549D01*
X115026174Y-103557262D01*
X114926450Y-103095396D01*
X114848734Y-102618708D01*
X114792847Y-102125620D01*
X114758610Y-101614551D01*
X114745846Y-101083922D01*
X114745843Y-101083248D01*
X114747320Y-100977788D01*
X114752164Y-100848581D01*
X114759943Y-100700851D01*
X114770226Y-100539822D01*
X114782582Y-100370720D01*
X114796578Y-100198769D01*
X114811785Y-100029195D01*
X114827770Y-99867222D01*
X114844103Y-99718074D01*
X114860350Y-99586976D01*
X114876083Y-99479154D01*
X114880405Y-99453452D01*
X114941909Y-99120192D01*
X115006328Y-98810063D01*
X115075422Y-98516213D01*
X115150949Y-98231789D01*
X115234671Y-97949940D01*
X115328346Y-97663812D01*
X115372939Y-97535447D01*
X115571799Y-97016422D01*
X115796879Y-96511095D01*
X116047605Y-96020382D01*
X116323404Y-95545198D01*
X116623701Y-95086460D01*
X116947926Y-94645083D01*
X117295502Y-94221982D01*
X117665857Y-93818074D01*
X117762949Y-93719187D01*
X118165916Y-93335552D01*
X118589392Y-92973236D01*
X119031981Y-92633056D01*
X119492281Y-92315828D01*
X119968894Y-92022371D01*
X120460419Y-91753500D01*
X120965459Y-91510035D01*
X121482612Y-91292790D01*
X122010481Y-91102585D01*
X122498560Y-90953800D01*
X123034987Y-90819680D01*
X123575580Y-90715164D01*
X124119610Y-90640251D01*
X124666352Y-90594940D01*
X125215078Y-90579232D01*
X125765061Y-90593124D01*
G37*
%TO.C,MCU1*%
X190322185Y-65634021D02*
X172542185Y-65634021D01*
X172542185Y-65634021D02*
X172542185Y-98654021D01*
X187782185Y-68174021D02*
X190322185Y-68174021D01*
X187782185Y-68174021D02*
X187782185Y-70714021D01*
X187782185Y-70714021D02*
X190322185Y-70714021D01*
X190322185Y-98654021D02*
X190322185Y-65634021D01*
X172542185Y-98654021D02*
X190322185Y-98654021D01*
%TO.C,G\u002A\u002A\u002A*%
G36*
X182309863Y-101655690D02*
G01*
X182400630Y-101713693D01*
X182512813Y-101800272D01*
X182637737Y-101907172D01*
X182766728Y-102026136D01*
X182891111Y-102148907D01*
X183002211Y-102267228D01*
X183091353Y-102372844D01*
X183149864Y-102457496D01*
X183169183Y-102510169D01*
X183146510Y-102599082D01*
X183080210Y-102647140D01*
X183019740Y-102655325D01*
X182962530Y-102639888D01*
X182892919Y-102588904D01*
X182801703Y-102495366D01*
X182784925Y-102476478D01*
X182691804Y-102377837D01*
X182571091Y-102259903D01*
X182441942Y-102141072D01*
X182372927Y-102080864D01*
X182254529Y-101976840D01*
X182177449Y-101900117D01*
X182134595Y-101842463D01*
X182118878Y-101795649D01*
X182118356Y-101785338D01*
X182140099Y-101693454D01*
X182200940Y-101642424D01*
X182249188Y-101634521D01*
X182309863Y-101655690D01*
G37*
G36*
X183016744Y-101162076D02*
G01*
X183111318Y-101220237D01*
X183228342Y-101329305D01*
X183240243Y-101341790D01*
X183361083Y-101474187D01*
X183484734Y-101617647D01*
X183602023Y-101760745D01*
X183703778Y-101892054D01*
X183780824Y-102000148D01*
X183818320Y-102061867D01*
X183847634Y-102161151D01*
X183829076Y-102239593D01*
X183767549Y-102286492D01*
X183711434Y-102295041D01*
X183663661Y-102288486D01*
X183617855Y-102262770D01*
X183563730Y-102208812D01*
X183491001Y-102117535D01*
X183453563Y-102067413D01*
X183354467Y-101940672D01*
X183233076Y-101795916D01*
X183109868Y-101657272D01*
X183062074Y-101606216D01*
X182943670Y-101474749D01*
X182870147Y-101372826D01*
X182838496Y-101293763D01*
X182845712Y-101230874D01*
X182874952Y-101190171D01*
X182939622Y-101152746D01*
X183016744Y-101162076D01*
G37*
G36*
X184457214Y-101828837D02*
G01*
X184588180Y-101868410D01*
X184751390Y-101928954D01*
X184936910Y-102006045D01*
X185134802Y-102095254D01*
X185335132Y-102192156D01*
X185527962Y-102292325D01*
X185703357Y-102391334D01*
X185807836Y-102455893D01*
X185933845Y-102546731D01*
X186005872Y-102623855D01*
X186026762Y-102692950D01*
X185999361Y-102759698D01*
X185974249Y-102788287D01*
X185921233Y-102825232D01*
X185859856Y-102828887D01*
X185778289Y-102796826D01*
X185664701Y-102726619D01*
X185660745Y-102723946D01*
X185500513Y-102624746D01*
X185302082Y-102515895D01*
X185084262Y-102406611D01*
X184865860Y-102306113D01*
X184665684Y-102223617D01*
X184568955Y-102188852D01*
X184406805Y-102128434D01*
X184299797Y-102071971D01*
X184243585Y-102015223D01*
X184233825Y-101953954D01*
X184262285Y-101889722D01*
X184315620Y-101835408D01*
X184368429Y-101814663D01*
X184457214Y-101828837D01*
G37*
G36*
X188400275Y-102393561D02*
G01*
X188442891Y-102429028D01*
X188456052Y-102454123D01*
X188469213Y-102497232D01*
X188467032Y-102546043D01*
X188445705Y-102608588D01*
X188401426Y-102692902D01*
X188330390Y-102807018D01*
X188228790Y-102958970D01*
X188190086Y-103015608D01*
X187801430Y-103530378D01*
X187369622Y-104005344D01*
X186898116Y-104437751D01*
X186390363Y-104824848D01*
X185849816Y-105163879D01*
X185279926Y-105452091D01*
X184974673Y-105580361D01*
X184807394Y-105643859D01*
X184684941Y-105684469D01*
X184597541Y-105704300D01*
X184535425Y-105705459D01*
X184488819Y-105690058D01*
X184482718Y-105686544D01*
X184443847Y-105633605D01*
X184430915Y-105556454D01*
X184445845Y-105484513D01*
X184467706Y-105457006D01*
X184511071Y-105434933D01*
X184596384Y-105398782D01*
X184709017Y-105354601D01*
X184775448Y-105329755D01*
X185330553Y-105093936D01*
X185863512Y-104803897D01*
X186370860Y-104462485D01*
X186849130Y-104072548D01*
X187294856Y-103636934D01*
X187704573Y-103158490D01*
X188074814Y-102640064D01*
X188103693Y-102595277D01*
X188172549Y-102492976D01*
X188225003Y-102432224D01*
X188273264Y-102401774D01*
X188325708Y-102390732D01*
X188400275Y-102393561D01*
G37*
G36*
X180923528Y-101262644D02*
G01*
X180960301Y-101291394D01*
X180974839Y-101313058D01*
X180986129Y-101350082D01*
X180994568Y-101409393D01*
X181000550Y-101497917D01*
X181004471Y-101622578D01*
X181006726Y-101790304D01*
X181007709Y-102008020D01*
X181007843Y-102124550D01*
X181008204Y-102910526D01*
X181384697Y-103043863D01*
X181585026Y-103119314D01*
X181799453Y-103207958D01*
X182020381Y-103305897D01*
X182240212Y-103409232D01*
X182451346Y-103514063D01*
X182646186Y-103616492D01*
X182817134Y-103712620D01*
X182956592Y-103798548D01*
X183056961Y-103870377D01*
X183110643Y-103924208D01*
X183114722Y-103931600D01*
X183127646Y-104017031D01*
X183093930Y-104087176D01*
X183024023Y-104124376D01*
X182999419Y-104126483D01*
X182933357Y-104111389D01*
X182839349Y-104072119D01*
X182752780Y-104025763D01*
X182155431Y-103699970D01*
X181541256Y-103425764D01*
X181285200Y-103328016D01*
X181007481Y-103226852D01*
X181007481Y-104586384D01*
X181007056Y-104931073D01*
X181005717Y-105219498D01*
X181003365Y-105455435D01*
X180999903Y-105642661D01*
X180995235Y-105784953D01*
X180989261Y-105886088D01*
X180981885Y-105949843D01*
X180973009Y-105979995D01*
X180971453Y-105981944D01*
X180901521Y-106014552D01*
X180816955Y-106007606D01*
X180754425Y-105970792D01*
X180745592Y-105957145D01*
X180737919Y-105932444D01*
X180731327Y-105892728D01*
X180725736Y-105834034D01*
X180721066Y-105752403D01*
X180717237Y-105643873D01*
X180714168Y-105504482D01*
X180711780Y-105330270D01*
X180709994Y-105117275D01*
X180708728Y-104861536D01*
X180707903Y-104559092D01*
X180707440Y-104205982D01*
X180707257Y-103798243D01*
X180707245Y-103633602D01*
X180707299Y-103207953D01*
X180707524Y-102838304D01*
X180708016Y-102520611D01*
X180708868Y-102250826D01*
X180710177Y-102024904D01*
X180712037Y-101838798D01*
X180714542Y-101688461D01*
X180717789Y-101569849D01*
X180721872Y-101478914D01*
X180726885Y-101411611D01*
X180732924Y-101363892D01*
X180740084Y-101331713D01*
X180748460Y-101311026D01*
X180758147Y-101297786D01*
X180762150Y-101293902D01*
X180844479Y-101248506D01*
X180923528Y-101262644D01*
G37*
G36*
X176290384Y-101320191D02*
G01*
X176316746Y-101341790D01*
X176330861Y-101380994D01*
X176353872Y-101470422D01*
X176383801Y-101601242D01*
X176418672Y-101764623D01*
X176456509Y-101951735D01*
X176478046Y-102062494D01*
X176518310Y-102265606D01*
X176555683Y-102440988D01*
X176588481Y-102581600D01*
X176615018Y-102680402D01*
X176633609Y-102730353D01*
X176639042Y-102734984D01*
X176674107Y-102727178D01*
X176761819Y-102709310D01*
X176895852Y-102682623D01*
X177069880Y-102648359D01*
X177277577Y-102607763D01*
X177512616Y-102562076D01*
X177768671Y-102512543D01*
X177894176Y-102488345D01*
X178216959Y-102426698D01*
X178485031Y-102376717D01*
X178702450Y-102337754D01*
X178873276Y-102309159D01*
X179001567Y-102290282D01*
X179091383Y-102280475D01*
X179146783Y-102279089D01*
X179170180Y-102284250D01*
X179209444Y-102335267D01*
X179230357Y-102408968D01*
X179226134Y-102482373D01*
X179184096Y-102529289D01*
X179155298Y-102545828D01*
X179094125Y-102595853D01*
X179039572Y-102684015D01*
X178998948Y-102780201D01*
X178927340Y-102954139D01*
X178839677Y-103143719D01*
X178744630Y-103331942D01*
X178650869Y-103501809D01*
X178567063Y-103636321D01*
X178549640Y-103661117D01*
X178460888Y-103776882D01*
X178355922Y-103903524D01*
X178243538Y-104031565D01*
X178132530Y-104151526D01*
X178031694Y-104253930D01*
X177949825Y-104329297D01*
X177895717Y-104368150D01*
X177892155Y-104369668D01*
X177808980Y-104376301D01*
X177732238Y-104343786D01*
X177682823Y-104284094D01*
X177674857Y-104245158D01*
X177695043Y-104199921D01*
X177750880Y-104121607D01*
X177835287Y-104019322D01*
X177941184Y-103902176D01*
X177942950Y-103900299D01*
X178061706Y-103768943D01*
X178180385Y-103628741D01*
X178284316Y-103497513D01*
X178352137Y-103403286D01*
X178407495Y-103313174D01*
X178471096Y-103199012D01*
X178537445Y-103072122D01*
X178601048Y-102943824D01*
X178656407Y-102825440D01*
X178698028Y-102728289D01*
X178720415Y-102663692D01*
X178721083Y-102643256D01*
X178690229Y-102646897D01*
X178607262Y-102660800D01*
X178479002Y-102683715D01*
X178312268Y-102714389D01*
X178113881Y-102751571D01*
X177890659Y-102794007D01*
X177697375Y-102831172D01*
X177412736Y-102886734D01*
X177182606Y-102933030D01*
X177002351Y-102971159D01*
X176867332Y-103002218D01*
X176772915Y-103027306D01*
X176714463Y-103047522D01*
X176687340Y-103063963D01*
X176684077Y-103071246D01*
X176689666Y-103108905D01*
X176705678Y-103199496D01*
X176730982Y-103337024D01*
X176764448Y-103515495D01*
X176804944Y-103728914D01*
X176851341Y-103971288D01*
X176902505Y-104236622D01*
X176954290Y-104503424D01*
X177008810Y-104783789D01*
X177059651Y-105045873D01*
X177105688Y-105283838D01*
X177145798Y-105491846D01*
X177178857Y-105664059D01*
X177203742Y-105794638D01*
X177219329Y-105877747D01*
X177224503Y-105907463D01*
X177205815Y-105939001D01*
X177177323Y-105970792D01*
X177106803Y-106009726D01*
X177025741Y-106014027D01*
X176962324Y-105982502D01*
X176960135Y-105979980D01*
X176948261Y-105943691D01*
X176926373Y-105854296D01*
X176895714Y-105717674D01*
X176857523Y-105539702D01*
X176813040Y-105326260D01*
X176763507Y-105083225D01*
X176710164Y-104816475D01*
X176654251Y-104531889D01*
X176650846Y-104514401D01*
X176373088Y-103086815D01*
X175860557Y-103186978D01*
X175572568Y-103242888D01*
X175337707Y-103287494D01*
X175150297Y-103321637D01*
X175004660Y-103346154D01*
X174895118Y-103361887D01*
X174815993Y-103369674D01*
X174761606Y-103370356D01*
X174726280Y-103364772D01*
X174709284Y-103357232D01*
X174663110Y-103299724D01*
X174648913Y-103222465D01*
X174669984Y-103153658D01*
X174683775Y-103138798D01*
X174724174Y-103123478D01*
X174815394Y-103099090D01*
X174949217Y-103067500D01*
X175117422Y-103030575D01*
X175311787Y-102990182D01*
X175518449Y-102949277D01*
X175727682Y-102908767D01*
X175916449Y-102872069D01*
X176077069Y-102840688D01*
X176201861Y-102816130D01*
X176283143Y-102799900D01*
X176313236Y-102793504D01*
X176313255Y-102793493D01*
X176308949Y-102764535D01*
X176294414Y-102685077D01*
X176271256Y-102563490D01*
X176241078Y-102408144D01*
X176205484Y-102227410D01*
X176186112Y-102129911D01*
X176148001Y-101937230D01*
X176114180Y-101763518D01*
X176086343Y-101617698D01*
X176066182Y-101508692D01*
X176055391Y-101445421D01*
X176054038Y-101434006D01*
X176079101Y-101371361D01*
X176141459Y-101326381D01*
X176219193Y-101306760D01*
X176290384Y-101320191D01*
G37*
%TD*%
D11*
%TO.C,MCU1*%
X189052185Y-69444021D03*
D12*
X189052185Y-71984021D03*
X189052185Y-74524021D03*
X189052185Y-77064021D03*
X189052185Y-79604021D03*
X189052185Y-82144021D03*
X189052185Y-84684021D03*
X189052185Y-87224021D03*
X189052185Y-89764021D03*
X189052185Y-92304021D03*
X189052185Y-94844021D03*
X189052185Y-97384021D03*
X173812185Y-69444021D03*
X173812185Y-71984021D03*
X173812185Y-74524021D03*
X173812185Y-77064021D03*
X173812185Y-79604021D03*
X173812185Y-82144021D03*
X173812185Y-84684021D03*
X173812185Y-87224021D03*
X173812185Y-89764021D03*
X173812185Y-92304021D03*
X173812185Y-94844021D03*
X173812185Y-97384021D03*
%TD*%
M02*
